<svg xmlns="http://www.w3.org/2000/svg" width="511.991" height="502.027" viewBox="0 0 511.991 502.027"><g transform="translate(0 -4.982)"><path d="M432.441,251.092c-9.55,23.055-10.151,51.557-.6,74.612l8.218,16.1H85.336s-66.042-37.107,0-103.149l351.658-7.247Z" fill="#f1f2f2"></path><path d="M440.058,341.8H85.338s-66.04-37.11,0-103.15L437,231.4l-4.56,19.69a96.6,96.6,0,0,0-5.01,16H105.548a22.6,22.6,0,1,0,0,45.21h322a86.831,86.831,0,0,0,4.29,13.4Z" fill="#dee1e1"></path><path d="M434.687,356.863l-324.24-.511c-38.845,0-72.205-24.78-72.205-63.625,0-8.58-1.494-19.83,1.319-27.432a70.363,70.363,0,0,1,65.987-45.933H438.187a15.865,15.865,0,0,1,0,31.73H186.437l-24.586,5.771-21.382-5.771H105.548a38.605,38.605,0,0,0,0,77.21H438.187a15.876,15.876,0,0,1,15.756,17.733c-.924,7.882-11.126,10.828-19.256,10.828Z" fill="#10d7ea"></path><path d="M453.938,346.035a15.858,15.858,0,0,1-15.75,14l-164.337,9.849-168.3-9.849a70.367,70.367,0,0,1-64.34-98.8V275.7a70.337,70.337,0,0,0,70.34,70.34Z" fill="#0597a5"></path><path d="M186.437,297.343V251.092H153.47l-11.705,1.175.7,43.076A2,2,0,0,0,145.2,297.2l8.272-2.022,9.254-3.623a2,2,0,0,1,1.458,0l19.526,7.646A2,2,0,0,0,186.437,297.343Z" fill="#ef5227"></path><path d="M153.47,251.1v44.09L143.2,299.2a2,2,0,0,1-2.73-1.86V251.1Z" fill="#d83724"></path><path d="M386.846,178.975v22.55l-1,10a7,7,0,0,1-7,7l-266.51-1a7,7,0,0,1-7-7l-2-31.55,136.813-6.538Z" fill="#fff"></path><path d="M455.553,197.8c-6.26,15.431-12.559,30.656-18.82,46.088a14.008,14.008,0,0,0,12.857,19.332l11.576,1h28.159a14.008,14.008,0,0,0,12.857-19.333L489.127,212.7,480.916,197.8H455.553Z" fill="#10d7ea"></path><path d="M465.633,218.392a38.016,38.016,0,0,0,23.493-5.687l-7.02-17.544-11.6,3.468s0,0,0,0l-15.123-2.018c-1.91,4.71-4.687,11.4-6.6,16.108a0,0,0,0,1,0,0l-13.051,32.169a14,14,0,0,0,12.85,19.33h16a14,14,0,0,1-12.85-19.33q4.877-12.012,9.748-24.023a4.042,4.042,0,0,1,4.149-2.471Z" fill="#0597a5"></path><path d="M492.042,180.229a23.3,23.3,0,0,0-15.586-22.044c-2.351-.815-5.768.635-8.392.635-12.749,0-20.6,8.541-20.6,21.41s9.538,20.59,22.287,20.59c2.625,0,4.35,2.268,6.7,1.454a23.3,23.3,0,0,0,15.586-22.045Z" fill="#10d7ea"></path><path d="M476.456,202.275a22.747,22.747,0,0,1-7.5,1.26,23.306,23.306,0,0,1,0-46.61,22.748,22.748,0,0,1,7.5,1.26,23.386,23.386,0,0,0,0,44.09Z" fill="#0597a5"></path><path d="M470.8,103.279l-65.959,22.834-18-1.846-128.029,52.4a41.96,41.96,0,0,1-27.456,0L103.336,126.31l-18-.2L19.373,103.279a8.393,8.393,0,0,1,0-15.862l214.49-74.252a34.31,34.31,0,0,1,22.452,0L470.8,87.417A8.393,8.393,0,0,1,470.8,103.279Z" fill="#868491"></path><path d="M404.846,119.345v6.77l-146.03,50.55a41.959,41.959,0,0,1-27.46,0l-146.02-50.55v-6.77a29.42,29.42,0,0,1,24.24-28.98,768.03,768.03,0,0,1,271.03,0,29.443,29.443,0,0,1,24.24,28.98Z" fill="#77777f"></path><path d="M386.846,119.345v59.63H106.336l-1-57.63a11.442,11.442,0,0,1,9.42-11.26c2.857-.512,3.717-3.007,6.579-3.486a749.8,749.8,0,0,1,256.091,1.486,11.452,11.452,0,0,1,9.42,11.26Z" fill="#868491"></path><path d="M386.846,201.525v11a7,7,0,0,1-7,7H110.336a7,7,0,0,1-7-7v-33.55l9-6.538,9,6.538v17.55a5,5,0,0,0,5,5Z" fill="#dadada"></path><path d="M121.336,106.605v72.37h-18v-59.63a11.442,11.442,0,0,1,9.42-11.26c2.86-.51,5.72-1.01,8.58-1.48Z" fill="#77777f"></path><path d="M458.864,466.143a94.088,94.088,0,0,1,0-72.014l3.043-13.518H52.994s-46.031,50.043,2.991,99.064l408.584,3.064Z" fill="#f1f2f2"></path><path d="M464.568,482.735l-408.58-3.06c-49.03-49.02-2.99-99.06-2.99-99.06l410.874.759-5,12.751a93.7,93.7,0,0,0-4.47,13.64H79.108a22.605,22.605,0,1,0,0,45.21h375.41a94.861,94.861,0,0,0,4.35,13.17Z" fill="#dee1e1"></path><path d="M457.681,497.2l-369.7-.681c-38.845,0-73.021-21.921-73.021-60.766,0-12.328-3.015-29.3,2.557-39.379a70.318,70.318,0,0,1,61.591-36.344H464.629a15.865,15.865,0,0,1,0,31.73H369.108l-24.959,5.525-21.008-5.525H79.106a38.605,38.605,0,0,0,0,77.21H464.629A15.88,15.88,0,0,1,480.236,487.7c-1.349,7.394-14.772,9.5-22.555,9.5Z" fill="#ef5227"></path><path d="M480.238,487.7a15.883,15.883,0,0,1-15.61,13H79.108a70.349,70.349,0,0,1-59.34-108.12v24.78a70.337,70.337,0,0,0,70.34,70.34Z" fill="#d83724"></path><path d="M369.108,438.374V391.749H338.14l-13.736.836.736,43.789a2,2,0,0,0,2.729,1.862l10.27-2.8,7.256-2.841a2,2,0,0,1,1.458,0l19.526,7.646a2,2,0,0,0,2.729-1.862Z" fill="#10d7ea"></path><path d="M338.14,391.745v43.69l-12.27,4.8a2,2,0,0,1-2.73-1.86v-46.63Z" fill="#0597a5"></path><path d="M510.417,238.81l-16.646-41.034a30.47,30.47,0,0,0-15.464-49.165c0-1.973,0-51.4,0-53.491a15.563,15.563,0,0,0-10.6-14.884l-210.857-73a41.4,41.4,0,0,0-26.98,0l-52.5,18.174a7.5,7.5,0,1,0,4.907,14.174l52.5-18.174a26.335,26.335,0,0,1,17.165,0L462.8,94.409a.752.752,0,0,1,0,1.42l-72.587,25.129v-2.246a18.727,18.727,0,0,0-15.437-18.45,742.019,742.019,0,0,0-262.832,0,18.728,18.728,0,0,0-15.437,18.45v2.246L23.922,95.829a.752.752,0,0,1,0-1.42L148.6,51.249a7.5,7.5,0,1,0-4.907-14.174L19.015,80.236a15.751,15.751,0,0,0,0,29.768l77.494,26.827v74.226A77.81,77.81,0,0,0,61.035,353.185a77.829,77.829,0,0,0,16.8,153.824H463.358a23.361,23.361,0,0,0,.474-46.718,85.922,85.922,0,0,1-.181-62.229,23.362,23.362,0,0,0-.293-46.723h-4.631a23.353,23.353,0,0,0-21.811-31.73h-.2a85.868,85.868,0,0,1-1.415-58.266,21.067,21.067,0,0,0,15.485,6.793h40.044a21.1,21.1,0,0,0,17.515-9.345,21.346,21.346,0,0,0,2.074-19.981ZM486,178.068a15.194,15.194,0,1,1-15.193-15.407A15.318,15.318,0,0,1,486,178.068Zm-22.693-66.541v37.084a30.47,30.47,0,0,0-15.464,49.165l-5.23,12.891h-52.4V136.831Zm-348.714,3.5a727.206,727.206,0,0,1,257.537,0,3.742,3.742,0,0,1,3.084,3.687V169.83H329a7.5,7.5,0,0,0,0,15h46.214v25.838h-263.7V184.83H294a7.5,7.5,0,0,0,0-15H111.509V118.713a3.742,3.742,0,0,1,3.084-3.687ZM471.724,374.7a8.374,8.374,0,0,1-8.365,8.365H77.835a46.1,46.1,0,1,0,0,92.209H374a7.5,7.5,0,0,0,0-15H77.835a31.1,31.1,0,1,1,0-62.209H314.37V440.11a7.5,7.5,0,0,0,10.235,6.983l20.249-7.929,20.249,7.929a7.5,7.5,0,0,0,10.235-6.983V398.068h72.4a100.662,100.662,0,0,0,.148,62.21H409a7.5,7.5,0,0,0,0,15h54.358a8.365,8.365,0,0,1,0,16.73H77.835a62.835,62.835,0,1,1,0-125.67H463.358a8.375,8.375,0,0,1,8.366,8.365ZM329.37,398.069h30.968V429.12l-12.749-4.992a7.5,7.5,0,0,0-5.47,0L329.37,429.12ZM201,334.608H436.917a8.365,8.365,0,0,1,0,16.73H104.277a62.835,62.835,0,0,1,0-125.671h332.25c-1.853,4.974-5.277,12.025-6.429,16.73H104.277a46.1,46.1,0,1,0,0,92.209H166a7.5,7.5,0,1,0,0-15H104.277a31.1,31.1,0,1,1,0-62.209H131.7v41.682a7.5,7.5,0,0,0,10.235,6.983l20.249-7.929,20.249,7.929a7.5,7.5,0,0,0,10.235-6.983V257.4H420.784a100.669,100.669,0,0,0,0,62.21H201a7.5,7.5,0,0,0,0,15ZM146.7,257.4h30.968v30.69L164.917,283.1a7.5,7.5,0,0,0-5.47,0L146.7,288.088Zm349.2-6.987a6.08,6.08,0,0,1-5.074,2.724H450.784a6.081,6.081,0,0,1-5.074-2.724,6.289,6.289,0,0,1-.616-5.963l15.344-37.822a30.024,30.024,0,0,0,20.736,0l15.343,37.822a6.285,6.285,0,0,1-.615,5.963Z"></path></g></svg>