<svg xmlns="http://www.w3.org/2000/svg" width="512" height="512.002" viewBox="0 0 512 512.002"><g transform="translate(0 0)"><path d="M472.967,234.57V213.82A14.6,14.6,0,0,0,458.4,199.249H53.6A14.6,14.6,0,0,0,39.061,213.82v20.75Z" fill="#10d7ea" fill-rule="evenodd"></path><path d="M472.967,229.723v-15.9A14.6,14.6,0,0,0,458.4,199.249H434.131A14.6,14.6,0,0,1,448.7,213.82v15.9h24.266Z" fill="#0597a5" fill-rule="evenodd"></path><path d="M256,7.512h82.149c5.1,0,6.463,2.126,3.741,6.634L334.237,26.9c-2.863,4.733-2.75,8.73,0,13.294l7.653,12.729c2.863,4.734.426,6.662-3.741,6.662H256Z" fill="#ff6270" fill-rule="evenodd"></path><path d="M313.885,7.512H338.15c5.1,0,6.463,2.126,3.741,6.634L334.238,26.9c-2.863,4.733-2.75,8.73,0,13.294l7.653,12.729c2.863,4.734.426,6.662-3.741,6.662H313.885c4.167,0,6.6-1.928,3.741-6.662L309.973,40.2c-2.778-4.563-2.863-8.561,0-13.294l7.653-12.756c2.722-4.508,1.36-6.634-3.741-6.634Z" fill="#f64b51" fill-rule="evenodd"></path><path d="M256,94.735A134.986,134.986,0,0,1,390.987,229.722H121.013A134.987,134.987,0,0,1,256,94.735Z" fill="#10d7ea" fill-rule="evenodd"></path><path d="M256,94.735A134.986,134.986,0,0,1,390.987,229.722H366.722A135.017,135.017,0,0,0,243.868,95.273c4-.339,8.05-.538,12.132-.538Z" fill="#0597a5" fill-rule="evenodd"></path><path d="M22.054,283.3H489.947V470.357H22.054Z" fill="#fff" fill-rule="evenodd"></path><path d="M465.681,289.307h24.266V464.321H465.681Z" fill="#ccc" fill-rule="evenodd"></path><path d="M118.178,469.2V363.378a31.068,31.068,0,1,0-62.135,0V469.2Zm331.969,0V363.378a31.067,31.067,0,1,0-62.134,0V469.2Zm-110.666,0V363.378a31.054,31.054,0,1,0-62.108,0V469.2Zm-110.666,0V363.378a31.054,31.054,0,1,0-62.107,0V469.2Z" fill="#10d7ea" fill-rule="evenodd"></path><path d="M22.054,504.517H489.947a14.6,14.6,0,0,0,14.57-14.57V478.892a14.621,14.621,0,0,0-14.57-14.571H22.054A14.616,14.616,0,0,0,7.512,478.892v11.055a14.6,14.6,0,0,0,14.542,14.57Zm0-215.21H489.947a14.6,14.6,0,0,0,14.57-14.569V244.265a14.6,14.6,0,0,0-14.57-14.542H22.054A14.591,14.591,0,0,0,7.512,244.265v30.473a14.6,14.6,0,0,0,14.542,14.569Z" fill="#f8f6f7" fill-rule="evenodd"></path><path d="M465.681,504.517h24.266a14.6,14.6,0,0,0,14.57-14.57V478.892a14.621,14.621,0,0,0-14.57-14.571H465.681a14.639,14.639,0,0,1,14.571,14.571v11.055A14.621,14.621,0,0,1,465.681,504.517Zm0-215.21h24.266a14.6,14.6,0,0,0,14.57-14.569V244.265a14.6,14.6,0,0,0-14.57-14.542H465.681a14.614,14.614,0,0,1,14.571,14.542v30.473A14.62,14.62,0,0,1,465.681,289.307Z" fill="#e7daec" fill-rule="evenodd"></path><path d="M118.178,464.32V363.378A31.169,31.169,0,0,0,87.111,332.31,30.853,30.853,0,0,0,74.978,334.8a31.154,31.154,0,0,1,18.907,28.574V464.32Zm331.969,0V363.378a31.015,31.015,0,0,0-43.2-28.574,31.136,31.136,0,0,1,18.936,28.574V464.32Zm-110.666,0V363.378a31.016,31.016,0,0,0-43.2-28.574,31.136,31.136,0,0,1,18.936,28.574V464.32Zm-110.666,0V363.378A30.991,30.991,0,0,0,185.643,334.8a31.155,31.155,0,0,1,18.907,28.574V464.32Z" fill="#0597a5" fill-rule="evenodd"></path><path d="M22.054,497.005H489.947A7.064,7.064,0,0,0,497,489.947V478.892a7.062,7.062,0,0,0-7.057-7.058H22.054A7.114,7.114,0,0,0,15,478.892v11.055a7.116,7.116,0,0,0,7.059,7.058Zm88.612-40.168V363.378a23.571,23.571,0,0,0-47.141,0v93.459Zm15-93.459v93.459H159.2V363.378a38.566,38.566,0,0,1,77.131,0v93.459h33.534V363.378a38.566,38.566,0,0,1,77.132,0v93.459h33.534V363.378a38.566,38.566,0,0,1,77.132,0v93.459h24.8V296.818H29.565v63.016a7.5,7.5,0,1,1-15,0V295.486A22.19,22.19,0,0,1,0,274.737V244.264A22.163,22.163,0,0,1,22.054,222.21h9.5v-8.391A22.116,22.116,0,0,1,53.6,191.736H118.66c1.248-4.479,2.693-8.872,4.365-13.181a142.707,142.707,0,0,1,27.3-44.362A7.466,7.466,0,1,1,161.408,144.2a126.86,126.86,0,0,0-32.683,78.011H383.279A127.444,127.444,0,0,0,185.73,123.336a7.485,7.485,0,0,1-8.277-12.473A141.5,141.5,0,0,1,248.518,87.42V7.512A7.5,7.5,0,0,1,256,0h89.916A7.5,7.5,0,0,1,353.4,7.512a7.318,7.318,0,0,1-1.275,4.167L338.971,33.534,352.323,55.7a7.507,7.507,0,0,1-2.551,10.29,7.4,7.4,0,0,1-3.856,1.076h-82.4V87.422A142.691,142.691,0,0,1,393.369,191.738h65.026a22.116,22.116,0,0,1,22.055,22.083v8.391h9.5A22.114,22.114,0,0,1,512,244.266v30.473a22.127,22.127,0,0,1-14.542,20.749V458.142a22.412,22.412,0,0,1,8.079,5.159A22.012,22.012,0,0,1,512,478.893v11.055A22.066,22.066,0,0,1,489.946,512H22.054A22.114,22.114,0,0,1,0,489.946V478.891A22.193,22.193,0,0,1,14.57,458.14V393.793a7.5,7.5,0,0,1,15,0v63.043H48.53V363.377a38.566,38.566,0,0,1,77.131,0Zm317,93.459V363.378a23.57,23.57,0,0,0-47.14,0v93.459Zm-110.665,0V363.378a23.571,23.571,0,0,0-47.141,0v93.459Zm-110.666,0V363.378a23.57,23.57,0,0,0-47.14,0v93.459ZM332.649,14.995H263.511V52.074h69.138l-8.787-14.543a7.525,7.525,0,0,1-.057-7.853Zm64.008,191.766a145.63,145.63,0,0,1,1.644,15.45h67.153V213.82a7.066,7.066,0,0,0-7.058-7.059Zm-282.929,15.45a139.122,139.122,0,0,1,1.644-15.45H53.6a7.007,7.007,0,0,0-4.961,2.07,6.932,6.932,0,0,0-2.1,4.989v8.391ZM22.054,281.795H489.947A7.061,7.061,0,0,0,497,274.738V244.265a7.011,7.011,0,0,0-2.068-4.961,7.1,7.1,0,0,0-4.989-2.1H22.054a7.034,7.034,0,0,0-4.961,2.1,6.919,6.919,0,0,0-2.1,4.961v30.473a6.935,6.935,0,0,0,2.1,4.989,7.011,7.011,0,0,0,4.961,2.068Z"></path></g></svg>