<svg xmlns="http://www.w3.org/2000/svg" width="512.002" height="511.796" viewBox="0 0 512.002 511.796"><g id="Group_6" data-name="Group 6" transform="translate(0 -0.103)"><g id="Group_5" data-name="Group 5"><g id="Group_4" data-name="Group 4"><path id="Path_1" data-name="Path 1" d="M7.5,141.1,241.455,11.4a30,30,0,0,1,29.091,0L504.5,141.1Z" fill="#10d7ea"></path><path id="Path_2" data-name="Path 2" d="M270.547,11.4a30,30,0,0,0-29.091,0L237,13.865,466.5,141.1h38Z" fill="#0597a5"></path><g id="Group_1" data-name="Group 1"><circle id="Ellipse_4" data-name="Ellipse 4" cx="78.438" cy="78.438" r="78.438" transform="translate(177.563 244.31)" fill="#ffe179"></circle><path id="Path_3" data-name="Path 3" d="M256,244.31a78.775,78.775,0,0,0-15,1.449,78.436,78.436,0,0,1,0,153.978A78.437,78.437,0,1,0,256,244.31Z" fill="#fbd268"></path></g><circle id="Ellipse_5" data-name="Ellipse 5" cx="27" cy="27" r="27" transform="translate(229.001 52.894)" fill="#3d6d93"></circle><path id="Path_4" data-name="Path 4" d="M256,52.894a26.868,26.868,0,0,0-15,4.55,27,27,0,0,1,0,44.9,27,27,0,1,0,15-49.45Z" fill="#335e80"></path><g id="Group_2" data-name="Group 2"><path id="Path_5" data-name="Path 5" d="M474.5,459.4H354.25l30-42.227H444.5Z" fill="#10d7ea"></path><path id="Path_6" data-name="Path 6" d="M444.5,417.172h-30l30,42.227h30Z" fill="#0597a5"></path><path id="Path_7" data-name="Path 7" d="M474.5,186.1H354.25l30,42.228H444.5Z" fill="#10d7ea"></path><path id="Path_8" data-name="Path 8" d="M444.5,186.1l-30,42.228h30l30-42.228Z" fill="#0597a5"></path><path id="Path_9" data-name="Path 9" d="M384.25,228.324H444.5V417.172H384.25Z" fill="#eaf6ff"></path><path id="Path_10" data-name="Path 10" d="M414.5,228.324h30V417.172h-30Z" fill="#d8ecfe"></path></g><g id="Group_3" data-name="Group 3"><path id="Path_11" data-name="Path 11" d="M157.753,459.4H37.5l30-42.227h60.252Z" fill="#10d7ea"></path><path id="Path_12" data-name="Path 12" d="M157.753,186.1H37.5l30,42.228h60.252Z" fill="#10d7ea"></path><path id="Path_13" data-name="Path 13" d="M67.5,228.324h60.251V417.172H67.5Z" fill="#eaf6ff"></path><path id="Path_14" data-name="Path 14" d="M127.753,417.172h-30l30,42.227h30Z" fill="#0597a5"></path><path id="Path_15" data-name="Path 15" d="M127.753,186.1l-30,42.228h30l30-42.228Z" fill="#0597a5"></path><path id="Path_16" data-name="Path 16" d="M97.753,228.324h30V417.172h-30Z" fill="#d8ecfe"></path></g><path id="Path_17" data-name="Path 17" d="M7.5,141.1h497v22.5A22.5,22.5,0,0,1,482,186.1H30A22.5,22.5,0,0,1,7.5,163.6V141.1Z" fill="#fff"></path><path id="Path_18" data-name="Path 18" d="M474.5,141.1v22.5A22.5,22.5,0,0,1,452,186.1h30a22.5,22.5,0,0,0,22.5-22.5V141.1Z" fill="#335e80"></path><path id="Path_19" data-name="Path 19" d="M17.5,459.4h477a10,10,0,0,1,10,10v25a10,10,0,0,1-10,10H17.5a10,10,0,0,1-10-10v-25a10,10,0,0,1,10-10Z" fill="#fff"></path><path id="Path_20" data-name="Path 20" d="M494.5,459.4h-30a10,10,0,0,1,10,10v25a10,10,0,0,1-10,10h30a10,10,0,0,0,10-10v-25A10,10,0,0,0,494.5,459.4Z" fill="#335e80"></path></g><path id="Path_21" data-name="Path 21" d="M271.293,297.106a7.5,7.5,0,0,0,15,0c0-13.488-10.491-23.568-22.792-22.885v-4.147a7.5,7.5,0,0,0-15,0v4.147c-12.37-.834-22.814,9.608-22.792,22.885v10.256c-.062,13.11,10.422,23.837,22.792,22.885v26.026c-4.259.514-7.792-2.679-7.792-7.885a7.5,7.5,0,0,0-15,0c0,13.109,10.422,23.838,22.792,22.885v4.148a7.5,7.5,0,1,0,15,0v-4.148c12.252.682,22.825-9.5,22.792-22.885V338.131c.03-13.491-10.492-23.565-22.792-22.885V289.221c4.131-.709,7.792,2.824,7.792,7.885ZM248.5,315.248c-4.258.515-7.786-2.68-7.792-7.885V297.107c-.01-4.951,3.673-8.653,7.792-7.885Zm22.792,22.884v10.257c-.063,4.924-3.615,8.675-7.792,7.885V330.248C267.632,329.536,271.3,333.072,271.293,338.132ZM290.5,79.894a34.5,34.5,0,1,0-34.5,34.5A34.54,34.54,0,0,0,290.5,79.894Zm-54,0a19.5,19.5,0,1,1,19.5,19.5A19.523,19.523,0,0,1,236.5,79.894ZM256,236.81a85.938,85.938,0,1,0,85.938,85.938A86.036,86.036,0,0,0,256,236.81Zm0,156.876a70.938,70.938,0,1,1,70.938-70.938A71.019,71.019,0,0,1,256,393.686ZM478.373,193.6c17.359,1.086,33.776-11.537,33.628-30V141.1a7.534,7.534,0,0,0-3.94-6.6L274.183,4.837a37.283,37.283,0,0,0-36.364,0l-94.36,52.312a7.5,7.5,0,1,0,7.273,13.119l94.36-52.312a22.375,22.375,0,0,1,21.819,0L475.5,133.6H36.5l83.276-46.167A7.5,7.5,0,0,0,112.5,74.31L3.943,134.493A7.606,7.606,0,0,0,0,141.1v22.5c-.16,17.66,15.8,31.928,33.628,30L60,230.717V414.779L33.629,451.9H17.5A17.521,17.521,0,0,0,0,469.4v25a17.521,17.521,0,0,0,17.5,17.5h477A17.521,17.521,0,0,0,512,494.4v-25a17.521,17.521,0,0,0-17.5-17.5H478.373L452,414.779V230.717ZM30,178.6a15.017,15.017,0,0,1-15-15v-15H497v15a15.017,15.017,0,0,1-15,15ZM384.25,329.188a7.5,7.5,0,0,0,7.5-7.5V235.824H437V409.672H391.75V356.688a7.5,7.5,0,0,0-15,0v58.091L350.378,451.9H161.625l-26.372-37.12V230.717L161.625,193.6H350.379l26.372,37.121v90.971A7.5,7.5,0,0,0,384.25,329.188ZM52.03,193.6h91.2l-19.343,27.228H71.373Zm68.223,42.228V409.672H75V235.824ZM71.373,424.672h52.508L143.224,451.9H52.03ZM494.5,466.9a2.5,2.5,0,0,1,2.5,2.5v25a2.5,2.5,0,0,1-2.5,2.5H17.5a2.5,2.5,0,0,1-2.5-2.5v-25a2.5,2.5,0,0,1,2.5-2.5Zm-34.528-15H368.779l19.344-27.227H440.63ZM440.629,220.824H388.122L368.778,193.6h91.194Z"></path></g></g></svg>