<svg xmlns="http://www.w3.org/2000/svg" width="513.796" height="513.796" viewBox="0 0 513.796 513.796"><g transform="translate(-1 -1)"><path d="M373.629,263.037H25.574A16.591,16.591,0,0,1,9,246.463V47.574A16.591,16.591,0,0,1,25.574,31H373.629A16.591,16.591,0,0,1,390.2,47.574V246.463A16.591,16.591,0,0,1,373.629,263.037Z" transform="translate(58.296 218.611)" fill="#10d7ea"></path><path d="M112.3,19H46V68.722h66.3ZM95.722,52.148H62.574V35.574H95.722Z" transform="translate(327.917 131.167)"></path><path d="M473.361,216.463v-84.4a24.827,24.827,0,0,0,16.574-23.336V92.157L462.952,1H251.732L225.1,89.779l-.348,18.952a24.827,24.827,0,0,0,16.574,23.336v84.4H169.268a91.157,91.157,0,1,0-104.5,0H42.435A41.482,41.482,0,0,0,1,257.9V473.361A41.482,41.482,0,0,0,42.435,514.8H473.361A41.482,41.482,0,0,0,514.8,473.361V257.9A41.482,41.482,0,0,0,473.361,216.463Zm-8.287-99.444H415.352a8.3,8.3,0,0,1-8.287-8.287v-8.287h66.3v8.287A8.3,8.3,0,0,1,465.074,117.018Zm-74.583-8.287a8.3,8.3,0,0,1-8.287,8.287H332.481a8.3,8.3,0,0,1-8.287-8.287v-8.287h66.3Zm-82.87,0a8.3,8.3,0,0,1-8.287,8.287H249.611a8.3,8.3,0,0,1-8.287-8.287v-8.287h66.3ZM325.064,83.87l6.63-66.3h51.3l6.663,66.3Zm145.446,0H406.277l-6.63-66.3h50.974Zm-206.447-66.3h50.974l-6.6,66.3H244.175ZM257.9,133.593h41.435a24.7,24.7,0,0,0,16.574-6.464,24.661,24.661,0,0,0,16.574,6.464H382.2a24.7,24.7,0,0,0,16.574-6.464,24.661,24.661,0,0,0,16.574,6.464h41.435v82.87H357.342v-66.3h-82.87v66.3H257.9Zm82.87,82.87H291.046V166.741h49.722ZM42.435,141.88a74.583,74.583,0,1,1,74.583,74.583A74.669,74.669,0,0,1,42.435,141.88ZM498.222,473.361a24.891,24.891,0,0,1-24.861,24.861H42.435a24.891,24.891,0,0,1-24.861-24.861V257.9a24.891,24.891,0,0,1,24.861-24.861H473.361A24.891,24.891,0,0,1,498.222,257.9Z" transform="translate(0)"></path><path d="M57,40H73.574v82.87H57Z" transform="translate(408.074 284.194)"></path><path d="M5,48H21.574V64.574H5Z" transform="translate(29.148 342.491)"></path><path d="M5,40H21.574V89.722H5Z" transform="translate(29.148 284.194)"></path><path d="M211.889,84.722H85.3L81.252,56.339A24.992,24.992,0,0,0,56.64,35H37.861a24.861,24.861,0,0,0,0,49.722h30.7l9.737,68.136a24.845,24.845,0,1,0,34.151,23.021,24.581,24.581,0,0,0-1.525-8.287H163.7a24.385,24.385,0,0,0-1.533,8.287,24.861,24.861,0,1,0,35.187-22.549l14.221-49.764ZM37.861,68.148a8.287,8.287,0,0,1,0-16.574H56.64a8.316,8.316,0,0,1,8.2,7.11l1.351,9.464ZM194.983,101.3l-14.212,49.722h-86l-7.1-49.722ZM95.87,175.88a8.287,8.287,0,1,1-8.287-8.287A8.29,8.29,0,0,1,95.87,175.88Zm91.157,8.287a8.287,8.287,0,1,1,8.287-8.287A8.29,8.29,0,0,1,187.028,184.167Z" transform="translate(87.444 247.759)"></path><path d="M52.435,44.148a8.3,8.3,0,0,1,8.287,8.287H77.3A24.891,24.891,0,0,0,52.435,27.574V11H35.861V27.574H11V52.435A24.891,24.891,0,0,0,35.861,77.3H52.435a8.3,8.3,0,0,1,8.287,8.287V93.87H35.861a8.3,8.3,0,0,1-8.287-8.287H11a24.891,24.891,0,0,0,24.861,24.861v16.574H52.435V110.444H77.3V85.583A24.891,24.891,0,0,0,52.435,60.722H35.861a8.3,8.3,0,0,1-8.287-8.287V44.148Z" transform="translate(72.87 72.87)"></path><path d="M39,134.444h99.444V35H39Zm16.574-82.87h66.3v66.3h-66.3Z" transform="translate(276.907 247.759)"></path><path d="M49,49H65.574V98.722H49Z" transform="translate(349.778 349.778)"></path><path d="M45,49H61.574V98.722H45Z" transform="translate(320.629 349.778)"></path><path d="M41,49H57.574V98.722H41Z" transform="translate(291.481 349.778)"></path></g></svg>