<svg xmlns="http://www.w3.org/2000/svg" width="637" height="412" viewBox="0 0 637 412" fill="none"><g clip-path="url(#clip0)"><path d="M430.18 53.94H127.79V345.06H430.18V53.94Z" fill="url(#paint0_linear)"></path><path d="M502.5 238.78C502.5 238.78 486.08 193.67 448.12 205.51C448.12 205.51 480.12 210.65 496.57 237.51C513.02 264.37 502.5 238.78 502.5 238.78Z" fill="url(#paint1_linear)"></path><path d="M496.05 238.78C496.05 238.78 512.47 193.64 550.43 205.51C550.43 205.51 518.43 210.65 501.98 237.51C485.53 264.37 496.05 238.78 496.05 238.78Z" fill="url(#paint2_linear)"></path><path d="M536.05 203.58C536.05 203.58 561.8 200.93 537.05 241.58L550.45 243.14C550.45 243.14 597.99 201.51 536.05 203.58Z" fill="url(#paint3_linear)"></path><path d="M507.02 238.91L502.51 240.91L501.29 241.45C501.29 241.45 483.53 236.45 493.5 232.19C495.399 231.277 497.539 230.993 499.61 231.38C504.97 232.58 507.02 238.91 507.02 238.91Z" fill="url(#paint4_linear)"></path><path d="M502.51 240.95L501.29 241.49C501.29 241.49 483.53 236.49 493.5 232.23C495.399 231.317 497.539 231.033 499.61 231.42C499.61 231.42 491.83 234.1 502.51 240.95Z" fill="url(#paint5_linear)"></path><path d="M566.56 236.39H428.22V345.05H566.56V236.39Z" fill="url(#paint6_linear)"></path><path d="M571.48 236.39H423.32V269.01H571.48V236.39Z" fill="url(#paint7_linear)"></path><path d="M512.28 236.39H482.52V345.05H512.28V236.39Z" fill="url(#paint8_linear)"></path><path d="M585.74 272.67C585.74 272.67 573.74 268.3 567.06 263.38C565.364 262.28 563.986 260.757 563.06 258.96C562.787 258.339 562.733 257.645 562.905 256.989C563.078 256.334 563.467 255.756 564.01 255.35C564.01 255.35 564.81 255.02 566.85 255.87C569.85 257.12 575.6 260.95 585.43 272.26C585.51 272.37 585.63 272.5 585.74 272.67Z" fill="url(#paint9_linear)"></path><path d="M585.74 272.67L585.06 276.03C585.06 276.03 561.06 282.03 553.4 274.2L553.07 273.85C552.463 273.169 552.012 272.364 551.75 271.49C549.59 264.05 563.97 255.35 563.97 255.35C563.64 255.77 563.72 256.35 564.13 257.04C564.689 257.894 565.362 258.668 566.13 259.34C571.76 264.67 585.74 272.67 585.74 272.67Z" fill="url(#paint10_linear)"></path><path d="M566.1 259.31C566.1 259.31 561.15 261.31 559.66 264.55C558.17 267.79 557.33 270.47 555.26 271.45C554.308 272.002 553.545 272.828 553.07 273.82C552.463 273.139 552.012 272.334 551.75 271.46C551.908 269.986 552.504 268.593 553.46 267.46C556.53 263.82 559.65 261.19 560.03 259.87C560.31 258.87 562.88 257.56 564.13 256.96C564.689 257.814 565.362 258.588 566.13 259.26L566.1 259.31Z" fill="url(#paint11_linear)"></path><path d="M593.07 272.67C593.07 272.67 605.07 268.3 611.75 263.38C613.446 262.28 614.824 260.757 615.75 258.96C616.024 258.34 616.08 257.647 615.909 256.991C615.739 256.336 615.351 255.757 614.81 255.35C614.81 255.35 614 255.02 611.96 255.87C608.96 257.12 603.21 260.95 593.39 272.26L593.07 272.67Z" fill="url(#paint12_linear)"></path><path d="M593.07 272.67L593.75 276.03C593.75 276.03 617.75 282.03 625.42 274.2C625.53 274.08 625.64 273.97 625.74 273.85C626.347 273.169 626.798 272.364 627.06 271.49C629.22 264.05 614.85 255.35 614.85 255.35C615.18 255.77 615.09 256.35 614.68 257.04C614.121 257.894 613.448 258.668 612.68 259.34C607.06 264.67 593.07 272.67 593.07 272.67Z" fill="url(#paint13_linear)"></path><path d="M584.83 272.67C584.83 272.67 585.95 271.4 586.74 271.9C587.53 272.4 588.65 270.95 589.85 271.53C591.05 272.11 591.18 270.53 592.63 271.39C594.08 272.25 594.96 275.18 593.88 276.63C592.8 278.08 592.22 276.34 591.68 276.63C591.14 276.92 590.14 278.22 588.48 277.22C586.82 276.22 584.37 278.12 584.54 276.88C584.71 275.64 584.12 275.04 584.83 272.67Z" fill="url(#paint14_linear)"></path><path d="M633.44 275.88H545.38V345.05H633.44V275.88Z" fill="url(#paint15_linear)"></path><path d="M636.56 275.88H542.25V299.88H636.56V275.88Z" fill="url(#paint16_linear)"></path><path d="M598.88 275.88H579.94V345.05H598.88V275.88Z" fill="url(#paint17_linear)"></path><path d="M76.69 155.73C91.94 166.35 106.89 173.47 114.92 169.13C115.391 168.875 115.839 168.581 116.26 168.25C120.85 164.61 122.47 156.13 119.39 140.76C111.2 99.86 85.5 93.35 61.48 81.03C37.76 68.89 46.8 43.03 47.04 42.41C14.31 100.47 50.88 137.67 76.69 155.73Z" fill="url(#paint18_linear)"></path><path d="M114.96 169.13C115.431 168.875 115.879 168.581 116.3 168.25C113.3 160.25 106.6 144.91 97.48 136.58C92.8504 132.541 87.9816 128.784 82.9 125.33C72.9 118.22 62.58 110.86 55.6 100.01L54.3 100.84C61.45 111.94 71.9 119.38 82.01 126.58C87.0365 129.986 91.8551 133.689 96.44 137.67C105.33 145.84 112.02 161.38 114.96 169.13Z" fill="url(#paint19_linear)"></path><path d="M31.99 197.53C52.99 200.98 66.59 184.36 90.79 214.95C111.69 241.36 141.24 212.17 148.94 203.69C150.16 202.35 150.82 201.53 150.82 201.53C150.82 201.53 150.36 201.65 149.56 201.83C144.31 202.96 124.42 206.2 119.73 191.08C114.33 173.62 98.87 149.87 78.45 156.13C58.03 162.39 53.61 147.02 38.53 135.44C23.45 123.86 1.90735e-06 145.24 1.90735e-06 145.24C1.90735e-06 145.24 10.96 194.08 31.99 197.53Z" fill="url(#paint20_linear)"></path><path d="M97.87 191.75C101.87 198.69 105.99 205.87 115.37 209.81C128.16 215.16 141.22 208.88 148.94 203.69C150.16 202.35 150.82 201.53 150.82 201.53C150.82 201.53 150.36 201.65 149.56 201.83C142.28 207 128.86 214.18 115.83 208.71C106.83 204.94 102.83 197.93 98.89 191.16C94.38 183.33 89.73 175.23 77.47 172.43C72.05 171.2 67.25 171.59 62.6 171.97C55.91 172.53 49.6 173.05 42.66 168.25L41.98 169.25C49.26 174.25 55.79 173.76 62.69 173.19C67.25 172.81 71.96 172.42 77.2 173.62C88.96 176.27 93.29 183.79 97.87 191.75Z" fill="url(#paint21_linear)"></path><path d="M423.86 99.73C426.12 141.29 459.09 139.22 461.7 138.99H461.86C461.14 138.15 460.47 137.3 459.86 136.44C443.34 113.56 462.15 82.26 461.86 59.24C461.54 35.36 440.26 30.13 440.26 30.13C455.9 43.29 421.52 56.45 423.86 99.73Z" fill="url(#paint22_linear)"></path><path d="M443.16 120.67C447.63 128.67 454.7 134.67 461.7 139H461.86C461.14 138.16 460.47 137.31 459.86 136.45C453.86 132.39 448.02 126.98 444.17 120.11C439.17 111.28 438.39 101.52 441.67 91.11C452.11 58.11 446.19 52.81 445.93 52.6L445.57 53.05L445.19 53.49C445.5 53.82 450.36 59.69 440.55 90.74C437.17 101.47 438.05 111.54 443.16 120.67Z" fill="url(#paint23_linear)"></path><path d="M490.3 141.26C477.19 157.41 463.3 169.71 453.3 167.53C452.715 167.405 452.143 167.227 451.59 167C445.53 164.52 441.16 155.9 439.69 138.41C435.81 91.88 461.43 76.9 483.45 56.2C505.2 35.77 497.82 10.8 497.36 10.2C550.69 62.45 512.51 113.86 490.3 141.26Z" fill="url(#paint24_linear)"></path><path d="M453.33 167.53C452.745 167.405 452.173 167.227 451.62 167C452.41 157.51 454.82 138.89 462.03 127.1C465.761 121.323 469.831 115.774 474.22 110.48C482.76 99.73 491.59 88.61 495.73 74.77L497.39 75.26C493.15 89.42 484.21 100.67 475.57 111.55C471.221 116.784 467.193 122.278 463.51 128C456.47 139.5 454.09 158.28 453.33 167.53Z" fill="url(#paint25_linear)"></path><path d="M106.78 95.7H451.2C456.377 95.7 461.342 97.7566 465.003 101.417C468.663 105.078 470.72 110.043 470.72 115.22V314.22C470.72 319.397 468.663 324.362 465.003 328.023C461.342 331.683 456.377 333.74 451.2 333.74H106.78C101.606 333.74 96.6432 331.684 92.9843 328.026C89.3255 324.367 87.27 319.404 87.27 314.23V115.23C87.2674 112.666 87.7701 110.127 88.7494 107.758C89.7287 105.388 91.1653 103.235 92.9773 101.421C94.7892 99.6076 96.9409 98.1687 99.3092 97.187C101.678 96.2053 104.216 95.7 106.78 95.7V95.7Z" fill="url(#paint26_linear)"></path><path d="M405.15 177.72C398.902 177.728 392.792 175.882 387.593 172.417C382.394 168.951 378.34 164.021 375.944 158.251C373.548 152.48 372.918 146.129 374.133 140C375.347 133.871 378.353 128.24 382.769 123.82C387.185 119.4 392.813 116.389 398.94 115.169C405.068 113.948 411.42 114.572 417.193 116.963C422.965 119.354 427.899 123.403 431.37 128.598C434.841 133.794 436.692 139.902 436.69 146.15C436.679 154.514 433.354 162.534 427.442 168.451C421.531 174.368 413.514 177.701 405.15 177.72V177.72ZM405.15 119.22C399.824 119.22 394.617 120.799 390.189 123.759C385.76 126.718 382.308 130.924 380.27 135.844C378.232 140.765 377.698 146.18 378.737 151.404C379.777 156.628 382.341 161.426 386.108 165.192C389.874 168.959 394.672 171.523 399.896 172.563C405.12 173.602 410.535 173.068 415.456 171.03C420.376 168.992 424.582 165.54 427.541 161.112C430.501 156.683 432.08 151.476 432.08 146.15C432.062 139.013 429.218 132.174 424.172 127.128C419.126 122.082 412.287 119.238 405.15 119.22V119.22Z" fill="#FF7759"></path><path d="M130.19 279.29C128.541 279.309 126.904 279.006 125.37 278.4C123.944 277.845 122.635 277.027 121.51 275.99C120.421 274.983 119.538 273.774 118.91 272.43C118.271 271.051 117.94 269.55 117.94 268.03C117.94 266.51 118.271 265.009 118.91 263.63C119.528 262.277 120.412 261.063 121.51 260.06C122.645 259.045 123.952 258.243 125.37 257.69C128.464 256.504 131.886 256.504 134.98 257.69C136.413 258.238 137.734 259.041 138.88 260.06C139.975 261.066 140.858 262.279 141.48 263.63C142.113 265.011 142.44 266.511 142.44 268.03C142.44 269.549 142.113 271.049 141.48 272.43C140.848 273.771 139.966 274.98 138.88 275.99C137.744 277.032 136.42 277.85 134.98 278.4C133.455 279 131.829 279.302 130.19 279.29V279.29ZM122.1 306.76L143.04 282.34L162.34 256.95L166.87 260.95L146.6 284.95L126.6 310.79L122.1 306.76ZM130.19 274.32C130.89 274.319 131.578 274.14 132.19 273.8C133.513 273.054 134.519 271.853 135.02 270.42C135.289 269.645 135.425 268.83 135.42 268.01C135.467 266.394 134.911 264.819 133.86 263.59C133.42 263.026 132.857 262.569 132.214 262.253C131.572 261.938 130.866 261.773 130.15 261.77C129.45 261.773 128.763 261.952 128.15 262.29C127.519 262.652 126.954 263.118 126.48 263.67C125.975 264.259 125.584 264.937 125.33 265.67C125.056 266.434 124.918 267.239 124.92 268.05C124.882 269.674 125.436 271.256 126.48 272.5C126.919 273.065 127.482 273.523 128.125 273.839C128.768 274.154 129.474 274.319 130.19 274.32V274.32ZM158.85 310.99C157.198 311.003 155.559 310.701 154.02 310.1C152.601 309.545 151.293 308.739 150.16 307.72C149.069 306.73 148.185 305.534 147.56 304.2C146.927 302.814 146.6 301.308 146.6 299.785C146.6 298.262 146.927 296.756 147.56 295.37C148.192 294.026 149.074 292.814 150.16 291.8C151.287 290.765 152.595 289.948 154.02 289.39C156.28 288.494 158.744 288.245 161.137 288.671C163.53 289.096 165.758 290.18 167.57 291.8C168.674 292.798 169.559 294.013 170.17 295.37C170.784 296.761 171.1 298.265 171.1 299.785C171.1 301.305 170.784 302.809 170.17 304.2C169.566 305.546 168.679 306.747 167.57 307.72C165.167 309.849 162.061 311.014 158.85 310.99V310.99ZM158.85 305.99C159.55 305.992 160.239 305.813 160.85 305.47C161.48 305.111 162.045 304.648 162.52 304.1C163.026 303.512 163.416 302.833 163.67 302.1C163.945 301.337 164.084 300.531 164.08 299.72C164.087 298.869 163.934 298.025 163.63 297.23C163.358 296.505 162.97 295.83 162.48 295.23C162.026 294.672 161.456 294.218 160.81 293.9C160.193 293.577 159.506 293.409 158.81 293.41C158.11 293.412 157.422 293.591 156.81 293.93C156.177 294.289 155.612 294.756 155.14 295.31C154.629 295.894 154.238 296.574 153.99 297.31C153.713 298.083 153.574 298.899 153.58 299.72C153.536 301.335 154.092 302.91 155.14 304.14C155.575 304.715 156.135 305.183 156.778 305.509C157.421 305.834 158.129 306.009 158.85 306.02V305.99Z" fill="#FF6A59"></path><path d="M313.1 126.55H109.7V141.1H313.1V126.55Z" fill="url(#paint27_linear)"></path><path d="M313.1 114.58H109.7V118.35H313.1V114.58Z" fill="url(#paint28_linear)"></path><path d="M213.73 149.15H109.7V163.7H213.73V149.15Z" fill="url(#paint29_linear)"></path><path opacity="0.95" d="M343.68 156.43H214.29C206.066 156.43 199.4 163.096 199.4 171.32V340.44C199.4 348.664 206.066 355.33 214.29 355.33H343.68C351.904 355.33 358.57 348.664 358.57 340.44V171.32C358.57 163.096 351.904 156.43 343.68 156.43Z" fill="url(#paint30_linear)"></path><path d="M319.27 320.97C315.801 320.97 312.41 319.941 309.525 318.014C306.641 316.087 304.393 313.347 303.065 310.142C301.738 306.937 301.39 303.411 302.067 300.008C302.744 296.606 304.414 293.48 306.867 291.027C309.32 288.574 312.446 286.904 315.848 286.227C319.251 285.55 322.777 285.898 325.982 287.225C329.187 288.553 331.927 290.801 333.854 293.685C335.781 296.57 336.81 299.961 336.81 303.43C336.805 308.08 334.955 312.539 331.667 315.827C328.379 319.115 323.92 320.965 319.27 320.97V320.97ZM319.27 289.28C316.471 289.278 313.734 290.106 311.406 291.66C309.078 293.213 307.262 295.423 306.19 298.008C305.117 300.594 304.836 303.439 305.381 306.184C305.926 308.93 307.272 311.452 309.251 313.432C311.229 315.412 313.751 316.761 316.496 317.307C319.241 317.854 322.087 317.575 324.673 316.504C327.259 315.433 329.469 313.62 331.025 311.292C332.58 308.965 333.41 306.229 333.41 303.43C333.405 299.681 331.914 296.086 329.263 293.434C326.613 290.782 323.019 289.288 319.27 289.28V289.28Z" fill="#FF5458"></path><path d="M318.15 310.33L310.19 302.37L312.59 299.96L318.15 305.53L325.96 297.73L328.36 300.13L318.15 310.33Z" fill="#FF5458"></path><path d="M373.08 295.71H367.99V319.17H373.08V295.71Z" fill="#FF7759"></path><path d="M378.06 295.71H375.51V319.17H378.06V295.71Z" fill="#FF7759"></path><path d="M385.14 295.71H380.49V319.17H385.14V295.71Z" fill="#FF7759"></path><path d="M390.44 295.71H387.65V319.17H390.44V295.71Z" fill="#FF7759"></path><path d="M393.69 295.8H392.39V319.26H393.69V295.8Z" fill="#FF7759"></path><path d="M400.03 295.71H395.58V319.17H400.03V295.71Z" fill="#FF7759"></path><path d="M405.2 295.71H401.83V319.17H405.2V295.71Z" fill="#FF7759"></path><path d="M408.49 295.71H406.81V319.17H408.49V295.71Z" fill="#FF7759"></path><path d="M415.19 295.71H410.41V319.17H415.19V295.71Z" fill="#FF7759"></path><path d="M419.96 295.71H416.39V319.17H419.96V295.71Z" fill="#FF7759"></path><path d="M423.28 295.71H421.5V319.17H423.28V295.71Z" fill="#FF7759"></path><path d="M427.17 295.71H424.71V319.17H427.17V295.71Z" fill="#FF7759"></path><path d="M436.72 295.82H428.91V319.28H436.72V295.82Z" fill="#FF7759"></path><path d="M118.69 35.24V78.37C118.69 78.37 127.29 90.52 137.55 78.37H156.42C156.42 78.37 165.01 90.52 175.28 78.37H194.15C194.15 78.37 202.74 90.52 213.01 78.37H231.87C231.87 78.37 240.47 90.52 250.74 78.37H269.6C269.6 78.37 278.2 90.52 288.47 78.37H307.33C307.33 78.37 315.93 90.52 326.19 78.37H345.06C345.06 78.37 353.66 90.52 363.92 78.37H382.79C382.79 78.37 391.38 90.52 401.65 78.37H420.52C420.52 78.37 429.11 90.52 439.38 78.37V35.24H118.69Z" fill="url(#paint31_linear)"></path><path d="M137.5 78.37C137.5 78.37 146.1 90.52 156.37 78.37V35.24H137.5V78.37Z" fill="#38D2E0"></path><path d="M175.23 78.37C175.23 78.37 183.83 90.52 194.1 78.37V35.24H175.23V78.37Z" fill="#38D2E0"></path><path d="M212.96 78.37C212.96 78.37 221.56 90.52 231.82 78.37V35.24H212.96V78.37Z" fill="#38D2E0"></path><path d="M250.69 78.37C250.69 78.37 259.29 90.52 269.55 78.37V35.24H250.69V78.37Z" fill="#38D2E0"></path><path d="M288.42 78.37C288.42 78.37 297.01 90.52 307.28 78.37V35.24H288.42V78.37Z" fill="#38D2E0"></path><path d="M326.14 78.37C326.14 78.37 334.74 90.52 345.01 78.37V35.24H326.14V78.37Z" fill="#38D2E0"></path><path d="M363.87 78.37C363.87 78.37 372.47 90.52 382.74 78.37V35.24H363.87V78.37Z" fill="#38D2E0"></path><path d="M401.6 35.24V78.37C401.6 78.37 410.2 90.52 420.47 78.37V35.24H401.6Z" fill="#38D2E0"></path><path d="M308.69 186.01L306.02 197.67H237.91V200.33L247.71 245.83V247.16H253.26L254.67 253.05H256.67C255.566 253.453 254.64 254.232 254.053 255.25C253.466 256.268 253.257 257.46 253.461 258.617C253.666 259.775 254.272 260.823 255.172 261.578C256.072 262.333 257.21 262.747 258.385 262.747C259.56 262.747 260.698 262.333 261.598 261.578C262.498 260.823 263.104 259.775 263.309 258.617C263.513 257.46 263.304 256.268 262.717 255.25C262.13 254.232 261.204 253.453 260.1 253.05H288.1C286.996 253.453 286.07 254.232 285.483 255.25C284.896 256.268 284.687 257.46 284.891 258.617C285.096 259.775 285.702 260.823 286.602 261.578C287.502 262.333 288.64 262.747 289.815 262.747C290.99 262.747 292.128 262.333 293.028 261.578C293.928 260.823 294.534 259.775 294.739 258.617C294.943 257.46 294.734 256.268 294.147 255.25C293.56 254.232 292.634 253.453 291.53 253.05H293.74V250.95H256.33L255.42 247.16H297.69V245.87L305.69 208.67L310.35 188.15H338.91V186.05L308.69 186.01ZM261.31 257.76C261.31 258.33 261.141 258.886 260.825 259.36C260.508 259.834 260.058 260.203 259.532 260.421C259.006 260.639 258.427 260.696 257.868 260.585C257.309 260.474 256.796 260.199 256.394 259.796C255.991 259.394 255.716 258.881 255.605 258.322C255.494 257.763 255.551 257.184 255.769 256.658C255.987 256.132 256.356 255.682 256.83 255.365C257.304 255.049 257.86 254.88 258.43 254.88C259.191 254.885 259.92 255.191 260.457 255.73C260.995 256.269 261.297 256.999 261.3 257.76H261.31ZM292.73 257.76C292.73 258.33 292.561 258.886 292.245 259.36C291.928 259.834 291.478 260.203 290.952 260.421C290.426 260.639 289.847 260.696 289.288 260.585C288.729 260.474 288.216 260.199 287.814 259.796C287.411 259.394 287.136 258.881 287.025 258.322C286.914 257.763 286.971 257.184 287.189 256.658C287.407 256.132 287.776 255.682 288.25 255.365C288.724 255.049 289.28 254.88 289.85 254.88C290.607 254.891 291.329 255.199 291.861 255.738C292.392 256.277 292.69 257.003 292.69 257.76H292.73ZM263.79 215.98H281.6L280.69 228.93H264.69L263.79 215.98ZM262.38 228.93H246.45L243.69 215.98H261.48L262.38 228.93ZM281.79 213.32H263.6L262.69 200.37H282.69L281.79 213.32ZM285.06 200.37H305.06L302.27 213.32H284.13L285.06 200.37ZM280.48 231.59L279.55 244.54H265.84L264.91 231.59H280.48ZM282.82 231.59H298.37L295.58 244.54H281.89L282.82 231.59ZM298.94 228.93H283.01L283.94 215.98H301.69L298.99 228.67L298.94 228.93ZM260.33 200.37L261.26 213.32H243.09L240.3 200.37H260.33ZM247.02 231.59H262.57L263.5 244.54H249.81L247.02 231.59Z" fill="#FF5458"></path><path d="M286.97 332.69H271.01V334.72H286.97V332.69Z" fill="#FF5458"></path><path d="M286.97 167.79H271.01V169.82H286.97V167.79Z" fill="#FF5458"></path><path d="M262.4 294.47H222.95V299.74H262.4V294.47Z" fill="#FF5458"></path><path d="M281.35 307.12H222.95V312.39H281.35V307.12Z" fill="#FF5458"></path><path d="M436.72 208.96H375.51V229.08H436.72V208.96Z" fill="#FF6A59"></path><path d="M436.72 234.63H375.51V246.59H436.72V234.63Z" fill="#FF6A59"></path><path d="M403.26 299.49C402.81 300.223 402.501 301.033 402.35 301.88C402.11 302.865 401.74 303.813 401.25 304.7C400.662 306.223 400.214 307.796 399.91 309.4C400.202 310.429 400.413 311.478 400.54 312.54C400.44 313.22 400.05 314.54 400.66 314.66C401.27 314.78 401.96 313.66 401.96 313.66C401.945 313.833 401.98 314.006 402.062 314.159C402.143 314.311 402.268 314.437 402.42 314.52C402.648 314.667 402.911 314.751 403.182 314.761C403.453 314.772 403.722 314.709 403.96 314.58C403.96 314.58 404.33 315.27 404.8 315.36C405.232 315.183 405.699 315.107 406.165 315.136C406.63 315.166 407.084 315.3 407.49 315.53C407.757 315.519 408.017 315.439 408.243 315.297C408.469 315.155 408.654 314.956 408.78 314.72C408.78 314.72 409.92 314.96 410.26 314.42C410.478 313.914 410.616 313.378 410.67 312.83C410.785 310.089 410.29 307.356 409.22 304.83C408.802 303.83 408.619 302.748 408.685 301.666C408.751 300.584 409.064 299.532 409.6 298.59L403.26 299.49Z" fill="#EEA886"></path><path d="M401.8 313.23C401.8 313.23 401.7 309.3 402.73 308.46C403.76 307.62 403.89 309.04 403.89 309.04C403.89 309.04 403.75 307.64 404.89 307.45C406.03 307.26 406.07 308.93 406.07 308.93C406.095 308.779 406.152 308.635 406.236 308.508C406.321 308.381 406.432 308.273 406.561 308.191C406.691 308.11 406.836 308.057 406.988 308.036C407.139 308.015 407.293 308.027 407.44 308.07C408.63 308.29 408.35 309.67 408.35 309.67C408.35 309.67 409.49 308.32 410.22 309.62C410.57 310.368 410.756 311.183 410.765 312.01C410.773 312.836 410.605 313.654 410.27 314.41C410.27 314.41 409.92 315 408.79 314.71C408.679 314.925 408.52 315.111 408.325 315.253C408.13 315.396 407.905 315.492 407.666 315.534C407.428 315.576 407.184 315.562 406.952 315.493C406.72 315.425 406.507 315.304 406.33 315.14C406.33 315.14 404.6 316.14 403.97 314.57C403.744 314.704 403.486 314.773 403.223 314.771C402.96 314.768 402.703 314.694 402.48 314.556C402.256 314.418 402.075 314.222 401.955 313.988C401.835 313.754 401.782 313.492 401.8 313.23V313.23Z" fill="#DB9C7C"></path><path d="M389.9 242.78C389.9 242.78 396.64 265.24 398.9 273.53C399.61 276.13 401.34 300.94 401.64 301.94C401.94 302.94 410.5 304.31 410.5 304.31C410.5 304.31 409.5 273.26 409.37 271.57C409.24 269.88 399.93 235.21 397.22 233.97C395.22 233.05 394.11 233.81 391.55 235.72C387.97 238.39 389.9 242.78 389.9 242.78Z" fill="#323657"></path><path d="M395.37 396.14C395.37 396.14 395.98 400.41 396.06 401.05C396.14 401.69 402.89 400.67 402.89 400.67L403.44 395.59C403.44 395.59 396.21 395.54 395.37 396.14Z" fill="#424773"></path><path d="M395.99 400.5C394.785 401.939 393.365 403.184 391.78 404.19C389.71 405.31 386.45 405.76 385.23 406.92C384.35 407.75 382.01 411.36 390.61 411.28C399.21 411.2 403.36 411.79 404.28 410.41C405.2 409.03 402.94 400.21 402.94 400.21C402.94 400.21 400.91 400.95 395.99 400.5Z" fill="#292C47"></path><path d="M346.95 396.14C346.95 396.14 347.57 400.41 347.65 401.05C347.73 401.69 354.48 400.67 354.48 400.67L355.03 395.59C355.03 395.59 347.8 395.54 346.95 396.14Z" fill="#424773"></path><path d="M347.57 400.5C346.365 401.939 344.945 403.184 343.36 404.19C341.29 405.31 333.67 406.19 332.45 407.39C331.56 408.23 330.09 411.6 342.19 411.28C350.79 411.06 354.94 411.79 355.86 410.41C356.78 409.03 354.53 400.21 354.53 400.21C354.53 400.21 352.61 401 347.57 400.5Z" fill="#292C47"></path><path d="M389.77 286.58C389.77 286.58 396.12 296.66 395.65 305.78C395.18 314.9 397.95 324.86 398.9 334.38C399.97 345 404.32 370.14 404.48 375.82C404.64 381.5 403.8 399.64 403.8 399.64L395.09 399.84C395.09 399.84 387.78 355.89 385.88 351.4C383.98 346.91 374.59 314.95 374.28 311.4C373.97 307.85 389.77 286.58 389.77 286.58Z" fill="#292C47"></path><path d="M356.35 287.94C356.35 287.94 351.57 312.94 350.94 318.51C350.31 324.08 349.88 345.51 349.57 349.01C349.26 352.51 346.62 394.55 345.78 399.84H356.91C356.91 399.84 365.46 369.19 365.46 354.69C365.46 340.19 372.07 323.17 376.33 313.6C380.59 304.03 390.33 303.81 392.97 286.06C392.97 286.06 359.9 282.31 356.35 287.94Z" fill="#292C47"></path><path d="M379.18 201.77C379.18 201.77 370.69 198.58 366.69 205.07C362.69 211.56 363.14 224.55 367.43 226.14C371.72 227.73 378.18 226.9 380.43 222.84C382.68 218.78 384.62 212.92 384.52 209C384.42 205.08 381.42 202.9 379.18 201.77Z" fill="#EEA886"></path><path d="M368.4 226.44C368.593 227.586 368.514 228.76 368.17 229.87C367.58 231.01 379.17 231.04 379.17 231.04C379.801 227.185 380.727 223.383 381.94 219.67C383.69 214.45 368.4 226.44 368.4 226.44Z" fill="#EEA886"></path><path d="M381.94 219.67C381.94 219.67 381.14 221 377.86 220.48C374.58 219.96 370.59 215.61 369.22 215.13C367.85 214.65 367.84 213.85 367.84 213.85L366.98 215.1L365.53 215.19C365.53 215.19 366.86 211.29 364.86 209.71C362.86 208.13 366.94 197.09 377.44 200.76C377.44 200.76 385.51 202.98 385.22 207.57C384.93 212.16 383.75 217.38 381.94 219.67Z" fill="#323657"></path><path d="M367.48 229.74C367.48 229.74 367.48 227.57 368.48 227.36C369.48 227.15 379.32 226.21 380.53 226.68V229.2C380.53 229.2 378.21 230.67 367.48 229.74Z" fill="#E2D2CA"></path><path d="M368.06 212.17C368.24 211.4 370.2 209.17 370.95 211.56C371.7 213.95 369.82 217.08 368.77 216.81C367.72 216.54 367.59 214.12 368.06 212.17Z" fill="#EEA886"></path><path d="M328.37 255.32C328.32 255.35 328.31 255.35 328.37 255.32V255.32Z" fill="#323657"></path><path d="M381.61 202.53C381.61 202.53 392.47 203.38 381.94 219.66L381.61 202.53Z" fill="#323657"></path><path d="M307.56 205.84C307.688 205.505 307.89 205.205 308.152 204.96C308.413 204.716 308.728 204.534 309.07 204.43C309.539 203.903 310.145 203.515 310.82 203.31C310.839 203.258 310.863 203.208 310.89 203.16C310.12 202.33 307.89 200.79 307.75 200.49C307.61 200.19 307.63 200.1 308.07 199.86C308.51 199.62 312.07 202.04 313.3 202.86C313.503 202.983 313.7 203.117 313.89 203.26C314.457 203.576 314.992 203.944 315.49 204.36L315.67 204.57C316.28 205.35 317.67 211.57 317.67 211.57L315.16 212.67L312.69 214.75C312.69 214.75 309.82 212.38 309.09 211.64C308.561 211.047 308.132 210.371 307.82 209.64C307.746 209.514 307.662 209.394 307.57 209.28C307.24 208.83 306.74 208.28 306.74 208.28C306.543 207.897 306.408 207.485 306.34 207.06C306.41 206.29 307.56 205.84 307.56 205.84Z" fill="#EFAA88"></path><path d="M351.18 233.02C357.94 232.13 367.48 229.74 367.48 229.74L380.54 229.2C380.54 229.2 392.54 231.84 397.24 233.97C397.69 234.18 397.69 244.67 398.92 247.42L395.01 255.67C395.01 255.67 392.74 272.03 392.28 279.3C392.06 282.64 396.94 310.61 396.94 310.61C392.301 311.825 387.573 312.668 382.8 313.13C373.89 314.13 351.62 312.77 351.48 311.72C351.34 310.67 355.79 272.52 355.99 270.55C356.29 267.55 354.94 251.41 354.94 251.41C352.89 249.81 334.82 241.41 329.89 237.05C328.57 235.88 323 230.46 321.42 228.59C315.82 221.96 311.22 216.28 310.66 215.05C310.03 214.36 316.75 210.7 317.36 210.5C317.97 210.3 325.47 220.14 328.36 223.29C330.498 225.186 332.735 226.969 335.06 228.63C335.06 228.63 346.95 233.26 351.18 233.02Z" fill="#323657"></path><path d="M139.69 227.82C139.69 227.82 141.26 224.88 141.51 224.44C142.399 223.675 143.443 223.112 144.57 222.79C145.876 222.308 147.273 222.12 148.66 222.24C148.847 222.328 149.013 222.454 149.148 222.611C149.282 222.768 149.382 222.952 149.44 223.15C149.581 223.606 149.581 224.094 149.44 224.55C149.622 224.767 149.75 225.025 149.813 225.301C149.875 225.578 149.871 225.865 149.8 226.14C150.002 226.342 150.133 226.604 150.175 226.887C150.216 227.17 150.165 227.458 150.03 227.71C150.03 227.71 150.69 228.4 150.29 229.05C149.701 229.332 149.139 229.667 148.61 230.05C146.716 231.036 144.698 231.763 142.61 232.21C142.61 232.21 139.81 231.96 139.69 227.82Z" fill="#EEA886"></path><path d="M144.27 226.67C144.221 227.393 144.076 228.105 143.84 228.79C143.56 229.23 147.05 230.67 147.05 230.67C147.05 230.67 146.29 226.86 144.27 226.67Z" fill="#CF8C6C"></path><path d="M184.15 269.5L142.47 274.92L135.41 236.75L178.98 229.3L184.15 269.5Z" fill="#EB4747"></path><path d="M163.05 233.04C162.91 229.04 161.48 224.24 158.37 221.69C157.253 220.816 155.957 220.199 154.574 219.882C153.191 219.566 151.756 219.558 150.37 219.86C143.6 220.95 143.14 228.02 144.52 233L163.05 233.04ZM145.24 232.1C144.08 226.8 145.12 221.62 150.53 220.75C151.787 220.472 153.09 220.474 154.346 220.756C155.603 221.037 156.782 221.592 157.8 222.38C160.51 224.6 161.8 228.71 162.1 232.14L145.24 232.1Z" fill="#23344A"></path><path d="M164.69 233.04C164.55 229.04 162.76 224.24 159.69 221.69C158.573 220.816 157.277 220.2 155.894 219.883C154.511 219.567 153.076 219.559 151.69 219.86C144.92 220.95 145.69 228.02 147.08 233L164.69 233.04ZM147.74 232.1C146.59 226.8 146.39 221.62 151.81 220.75C153.067 220.473 154.37 220.475 155.626 220.757C156.882 221.038 158.062 221.592 159.08 222.38C161.861 224.919 163.609 228.394 163.99 232.14L147.74 232.1Z" fill="#23344A"></path><path d="M177.72 275.61L129.07 271.86L132.98 232.46L178.18 231.13L177.72 275.61Z" fill="#9E4CC7"></path><path d="M41.85 253.8C41.85 253.8 42.25 250.49 42.29 249.98C42.0074 248.842 41.4783 247.781 40.74 246.87C39.9585 245.73 38.934 244.777 37.74 244.08C37.5372 244.04 37.3282 244.046 37.1277 244.096C36.9273 244.146 36.7403 244.24 36.58 244.37C36.1994 244.652 35.9078 245.037 35.74 245.48C35.4598 245.541 35.1987 245.67 34.9792 245.855C34.7597 246.039 34.5884 246.274 34.48 246.54C34.2128 246.621 33.9755 246.779 33.7976 246.994C33.6197 247.209 33.5093 247.472 33.48 247.75C33.48 247.75 32.56 247.95 32.48 248.7C32.799 249.272 33.0667 249.871 33.28 250.49C34.2423 252.373 35.4568 254.115 36.89 255.67C36.89 255.67 39.38 257.12 41.85 253.8Z" fill="#EEA886"></path><path d="M47.22 258.36C47.61 255.31 47.22 251.36 45.22 248.98C44.5656 248.231 43.754 247.636 42.8431 247.236C41.9321 246.837 40.9443 246.644 39.95 246.67C38.6075 246.583 37.2621 246.79 36.008 247.277C34.7539 247.764 33.6215 248.519 32.69 249.49C30.09 252.32 29.38 257.06 29.77 260.85L47.22 258.36ZM30.5 259.87C30.34 256.57 31.01 252.54 33.27 250.07C34.1319 249.192 35.1757 248.513 36.328 248.081C37.4803 247.649 38.7131 247.475 39.94 247.57C40.8029 247.551 41.6596 247.719 42.4506 248.065C43.2415 248.41 43.9477 248.924 44.52 249.57C46.25 251.57 46.67 255.02 46.44 257.64L30.5 259.87Z" fill="#23344A"></path><path d="M11.06 303.31L14.26 262.25L21.38 302.74L16.45 301.88L11.06 303.31Z" fill="#3F74A0"></path><path d="M21.38 302.74L63.69 295.3L56.77 255.89L14.14 261.95L21.38 302.74Z" fill="#5B83C2"></path><path d="M66.69 267.19C67.38 269.19 66.69 271.74 65.85 273.65H66.61C67.51 271.65 68.09 269.04 67.36 266.91L66.69 267.19Z" fill="#23344A"></path><path d="M35.48 304.31L70.15 308.83L76.05 277.04L39.8 270.84L35.48 304.31Z" fill="#EB4747"></path><path d="M28.41 303.31L39.77 270.87L35.48 304.11L31.79 302.74L28.41 303.31Z" fill="#AD3434"></path><path d="M67.43 266.28C68.66 268.72 68.06 272.03 67.84 273L68.55 273.26C68.79 272.26 69.55 268.26 67.79 265.4L67.43 266.28Z" fill="#23344A"></path><path d="M31.79 308.17L39.51 273.12L40.82 309.2L36.62 307.59L31.79 308.17Z" fill="#B06E2A"></path><path d="M36.89 255.67C36.89 255.67 39.48 257.98 40.82 258.02C42.16 258.06 42.82 254.39 42.82 254.39L41.69 252.15L36.89 255.67Z" fill="#EEA886"></path><path d="M137.93 229.91C138.648 229.229 139.277 228.46 139.8 227.62C140.37 226.56 142.96 232.16 142.96 232.16C142.96 232.16 139.74 232.29 138.32 233.29C136.9 234.29 137.93 229.91 137.93 229.91Z" fill="#EEA886"></path><path d="M148.26 222.38C148.26 222.38 144.43 223.98 144.61 224.63C144.639 224.802 144.712 224.964 144.822 225.099C144.933 225.234 145.077 225.338 145.24 225.4L143.96 226.77C143.96 226.77 143.63 228.16 145.24 228.12C145.24 228.12 144.79 229.38 146.34 229.12C146.34 229.12 146.41 230.12 147.15 230.12C148.244 229.882 149.305 229.512 150.31 229.02C150.31 229.02 150.71 228.55 150.11 227.68C150.252 227.428 150.313 227.139 150.287 226.852C150.26 226.564 150.146 226.291 149.96 226.07C150.036 225.795 150.036 225.505 149.96 225.231C149.884 224.956 149.736 224.707 149.53 224.51C149.53 224.51 150.06 222.78 148.67 222.21L148.26 222.38Z" fill="#DB9C7C"></path><path d="M141.69 224.38C143.18 224.484 144.645 224.822 146.03 225.38C146.36 225.57 146.66 225.81 146.62 226.19C146.58 226.57 145.97 227 144.73 226.96C143.762 226.986 142.803 227.148 141.88 227.44C141.88 227.44 140.57 227.06 141.69 224.38Z" fill="#EEA886"></path><path d="M38.79 250.19C38.4126 250.814 38.1232 251.487 37.93 252.19C37.93 252.72 34.22 251.89 34.22 251.89C34.22 251.89 37 249.22 38.79 250.19Z" fill="#CF8C6C"></path><path d="M37.96 244.43C37.96 244.43 40.19 247.93 39.66 248.36C39.5339 248.492 39.374 248.587 39.1977 248.635C39.0214 248.682 38.8354 248.681 38.66 248.63L38.92 250.49C38.92 250.49 38.4 251.82 37.11 250.86C37.11 250.86 36.75 252.15 35.61 251.08C35.61 251.08 34.99 251.82 34.38 251.42C33.6022 250.601 32.9303 249.687 32.38 248.7C32.38 248.7 32.31 248.09 33.3 247.7C33.3319 247.411 33.45 247.138 33.6391 246.917C33.8281 246.696 34.0793 246.537 34.36 246.46C34.4596 246.198 34.6269 245.968 34.8448 245.792C35.0626 245.617 35.3233 245.502 35.6 245.46C35.6 245.46 36.17 243.74 37.6 244.08C37.7272 244.189 37.8474 244.306 37.96 244.43Z" fill="#DB9C7C"></path><path d="M42.23 249.87C40.947 249.102 39.5493 248.545 38.09 248.22C37.71 248.17 37.33 248.22 37.15 248.54C36.97 248.86 37.21 249.54 38.24 250.25C39.0169 250.817 39.7104 251.49 40.3 252.25C40.3 252.25 41.56 252.67 42.23 249.87Z" fill="#EEA886"></path><path d="M87.78 403.14C85.78 403.74 85.2 407.14 83.51 408.14C81.82 409.14 73.58 409.83 73.29 407.24C73 404.65 76.74 402.35 78.43 401.06C80.12 399.77 83.91 395.53 84.68 393.84C84.68 393.84 85.36 394.92 87.38 394.59C89.4 394.26 89.69 393.67 89.69 393.67C89.7068 395.106 89.9881 396.526 90.52 397.86C90.6946 398.386 90.762 398.942 90.7182 399.495C90.6743 400.048 90.5201 400.586 90.2647 401.078C90.0093 401.571 89.6578 402.007 89.231 402.361C88.8043 402.715 88.3109 402.98 87.78 403.14V403.14Z" fill="#3F74A0"></path><path d="M101.24 403.61C99.71 405 99.42 407.23 97.73 408.22C96.9155 408.612 96.0452 408.875 95.15 409C93.09 409.37 90.47 409.45 89.15 408.7C88.9452 408.597 88.7684 408.445 88.6344 408.259C88.5003 408.073 88.4131 407.857 88.38 407.63C88.09 405.05 91.91 402.16 93.6 400.87C94.8675 399.628 95.8858 398.155 96.6 396.53C97.13 395.47 97.6 394.47 97.88 393.82C97.969 393.964 98.0885 394.087 98.23 394.18C98.5511 394.373 98.9073 394.501 99.278 394.556C99.6487 394.611 100.027 394.592 100.39 394.5C101.258 394.432 102.093 394.135 102.81 393.64C103.14 395.26 103.66 396.9 103.86 397.64C104.69 400.3 102.69 402.29 101.24 403.61Z" fill="#3F74A0"></path><path d="M86.69 199.87C86.69 199.87 93.14 199.2 95.46 205.42C97.78 211.64 99.97 213.68 100.24 216.96C101.35 230.18 107.53 227.19 105.79 234.82C104.05 242.45 102.85 243.59 102.85 243.59L88.06 240.67L73.06 240.72C73.06 240.72 78.92 237.79 77.61 231.57C76.3 225.35 73.06 215.14 74.9 208.19C76.74 201.24 82.82 200.4 86.69 199.87Z" fill="#223247"></path><path d="M40.82 309.2L78.24 307.89L78.93 272.95H39.54L40.82 309.2Z" fill="#FAA146"></path><path d="M193.96 266.7L178.98 229.3L184.15 269.5L188.51 266.94L193.96 266.7Z" fill="#AD3434"></path><path d="M188.57 274.38L178.18 231.13L177.72 275.61L182.77 273.67L188.57 274.38Z" fill="#5B2C73"></path><path d="M76.03 288.67C76.03 288.67 70.59 307.57 69.69 312.4C68.79 317.23 66.09 340.63 65.8 344.61C65.51 348.59 74.67 367.25 75.17 368.61C77.1 373.82 85 392.71 85 392.71C85 392.71 90.1 395.71 89.53 391.3C87.8 377.81 86.98 374.48 85.77 367.48C83.11 352.15 77.61 350.14 78.45 347.9C86.96 325.29 88.67 309.9 89.81 308.63C90.95 307.36 91.1 309.3 91.76 312.24C92.42 315.18 91.5 335.39 92.69 343.24C93.34 347.49 94.8 357.01 95.28 362.51C95.76 368.01 98.23 393.43 98.23 393.43C98.23 393.43 98.56 394.43 102.35 392.28C102.98 391.93 105.98 369.8 106.08 363.28C106.18 356.76 103.28 355.81 105.6 343.15C110.6 316.02 109.88 311.35 104.09 291.85C89.87 244.09 76.03 288.67 76.03 288.67Z" fill="#EEA886"></path><path d="M142.3 233.2C142.07 232.96 128.3 243.52 126.78 244.39C123.78 246.1 120.61 246.01 117.26 246.22C113.51 246.45 109.26 246.05 105.57 246.79C103.67 247.17 103.44 247.67 102.45 249.7C99.74 255.22 98.87 262.09 98.51 268.16C98.13 274.49 100.56 278.89 103.11 284.48C103.98 286.37 105.2 288.33 103.52 290.06C102.01 291.63 99.04 291.94 97.05 292.2C92.17 292.84 84.69 293.2 79.99 291.29C74.24 288.92 75.27 281.68 74.66 276.63C74.25 273.25 72.61 268.18 71.66 264.9C70.8355 262.319 70.5463 259.597 70.81 256.9C69.02 261.99 67.51 270.7 62.68 273.9C58.94 276.4 55.61 273.04 52.92 270.71L37.69 257.4L40.94 254.4C41.3 254.07 41.32 253.98 41.72 253.66C42.72 252.9 42.57 252.66 43.55 253.29C44.21 253.74 45.97 255.37 46.55 255.89C48.4 257.61 50.02 258.65 51.86 260.37C53.47 261.86 56.22 265.32 58.68 264.12C60.57 263.18 61.09 259.33 61.74 257.61C63.55 252.83 65.37 248.03 67.53 243.39C69.83 238.39 74.94 235.8 79.89 233.82C84.18 232.11 89.89 232.46 94.27 233.56C97.27 234.34 98.41 234.39 101.45 235.23C104.49 236.07 107.06 237.07 110.01 237.68C113.447 238.343 116.94 238.678 120.44 238.68C123.19 238.68 124.33 238.25 126.64 236.68C129.76 234.52 134.31 230.79 137.73 229.06C139.87 227.9 140.62 231.48 142.3 233.2Z" fill="#F0DDD5"></path><path d="M91.12 225.73C91.12 225.73 90.61 232.17 91.85 234.1C93.09 236.03 90.79 238.64 86.05 237.75C81.31 236.86 81.59 234.16 81.59 234.16C82.3381 231.854 82.6534 229.43 82.52 227.01C82.14 223.84 91.12 225.73 91.12 225.73Z" fill="#EEA886"></path><path d="M94.21 233.55C94.21 233.55 89.93 243.55 84.4 245.62C84.4 245.62 78.94 240.77 80.4 233.62C80.41 233.59 87.45 229.99 94.21 233.55Z" fill="#EEA886"></path><path d="M87.52 203.51C87.52 203.51 96.06 204.74 94.81 217.35C93.56 229.96 86.02 228.95 85.52 228.94C85.02 228.93 77.96 229.2 77.35 213.82C77.35 213.82 77.07 202.45 87.52 203.51Z" fill="#EEA886"></path><path d="M86.55 208.08C86.55 208.08 90.55 212.27 92.39 214.4C94.23 216.53 94.45 220.62 94.45 220.62C94.45 220.62 97.57 216.81 96.27 212.37C94.97 207.93 91.88 199.29 84.06 201.95C76.24 204.61 75.95 216.28 76.87 222.07C76.87 222.07 80.38 209.29 86.55 208.08Z" fill="#223247"></path><path d="M83.26 228.41C84.4647 228.923 85.7873 229.096 87.0834 228.909C88.3795 228.722 89.5994 228.183 90.61 227.35C90.1861 228.027 89.6173 228.601 88.9447 229.032C88.272 229.462 87.5122 229.738 86.72 229.84C86.0687 229.924 85.4068 229.836 84.8 229.585C84.1931 229.334 83.6622 228.929 83.26 228.41V228.41Z" fill="#A77860"></path><path d="M59.81 262.93C59.5411 263.434 59.1263 263.845 58.62 264.11C54.71 266.21 54.03 271.18 53.9 272.94H53.07C53.75 263.77 59.81 262.93 59.81 262.93Z" fill="#23344A"></path><path d="M59.58 262.98C59.58 262.98 53.28 263.28 51.5 272.84L52.15 272.94C52.15 272.94 53.38 265.94 58.41 264.01C58.8861 263.779 59.2905 263.423 59.58 262.98Z" fill="#23344A"></path><path d="M104.19 287.01C104.19 287.01 112.81 304.87 107.01 341.1C107.01 341.1 89.43 339.45 63.06 337.56C63.06 337.56 75.06 288.84 75.39 285.74C75.72 282.64 104.19 287.01 104.19 287.01Z" fill="#F0DDD5"></path><path d="M84.81 392.34C85.5452 392.8 86.415 392.996 87.2764 392.896C88.1379 392.796 88.9397 392.406 89.55 391.79L89.69 393.67C89.69 393.67 85.8 397.17 84.77 393.41L84.81 392.34Z" fill="#EEA886"></path><path d="M98.91 392.02C98.91 392.02 100.38 393.35 102.6 391.36L102.89 393.58C102.89 393.58 99.1 397.45 98.07 393.69L98.91 392.02Z" fill="#EEA886"></path><path d="M84.81 393.43C84.81 393.43 82.81 395.85 82.98 396.25C83.15 396.65 87.6 397.54 88.27 396.59C88.8274 395.66 89.3025 394.683 89.69 393.67C89.69 393.67 85.87 395.41 84.81 393.43Z" fill="#3F74A0"></path><path d="M98.19 393.38C98.19 393.38 96.3 396.04 96.5 396.44C96.7 396.84 100.62 397.44 101.29 396.53C101.889 395.584 102.423 394.598 102.89 393.58C102.89 393.58 99.25 395.36 98.19 393.38Z" fill="#3F74A0"></path><path d="M75.13 283.16C75.13 283.16 85.49 287 100.45 278.55C100.45 278.55 101.04 279.77 101.71 281.44C101.71 281.44 88.08 289.86 75.39 285.74C75.1833 284.896 75.0958 284.028 75.13 283.16Z" fill="#FF4D4D"></path><path d="M72.15 248.17C70.95 251.26 70.82 256.86 70.82 256.86C70.82 256.86 70.44 258.32 69.82 260.07C69.69 251.75 72.15 248.17 72.15 248.17Z" fill="#AD3434"></path><path d="M85.83 234.3C85.3433 234.299 84.8578 234.253 84.38 234.16C83.45 234.037 82.5824 233.624 81.9 232.98L82.12 232.18C82.8369 232.758 83.6853 233.149 84.59 233.32C86.9094 233.628 89.2602 233.057 91.18 231.72L91.51 232.49C89.8264 233.619 87.8566 234.247 85.83 234.3V234.3Z" fill="#C43B3B"></path><path d="M112.32 99.74L92.37 103.48C91.2301 103.695 90.197 104.291 89.44 105.17L44.16 157.53C43.2731 158.558 42.8307 159.896 42.9301 161.25C43.0295 162.604 43.6625 163.863 44.69 164.75L63.82 181.29C64.8465 182.178 66.1838 182.622 67.5376 182.525C68.8915 182.427 70.1513 181.796 71.04 180.77L116.31 128.4C117.071 127.525 117.512 126.418 117.56 125.26L118.37 104.98C118.403 104.211 118.262 103.445 117.957 102.738C117.652 102.032 117.192 101.403 116.61 100.899C116.028 100.396 115.341 100.03 114.598 99.8289C113.855 99.6281 113.076 99.5978 112.32 99.74V99.74ZM115.2 106.74C114.846 107.151 114.378 107.447 113.855 107.591C113.333 107.736 112.779 107.722 112.264 107.552C111.749 107.381 111.297 107.062 110.964 106.634C110.63 106.206 110.432 105.689 110.392 105.149C110.353 104.608 110.475 104.068 110.743 103.596C111.011 103.125 111.413 102.744 111.898 102.501C112.383 102.258 112.928 102.164 113.466 102.232C114.004 102.299 114.51 102.525 114.92 102.88C115.45 103.352 115.775 104.011 115.828 104.718C115.88 105.426 115.655 106.126 115.2 106.67V106.74Z" fill="#EEECF0"></path><path d="M73.4 161.51C72.7453 162.277 71.964 162.927 71.09 163.43C70.2793 163.919 69.3778 164.239 68.44 164.37L67.74 161.44C67.9677 161.469 68.1989 161.452 68.42 161.39C68.7851 161.314 69.1431 161.207 69.49 161.07C69.9201 160.901 70.3295 160.682 70.71 160.42C71.1407 160.141 71.531 159.805 71.87 159.42C72.3289 158.943 72.6172 158.328 72.69 157.67C72.701 157.425 72.6542 157.18 72.5535 156.956C72.4528 156.732 72.3009 156.535 72.11 156.38C71.9307 156.212 71.6957 156.116 71.45 156.11C71.1693 156.114 70.8917 156.169 70.63 156.27C70.301 156.396 69.9832 156.55 69.68 156.73C69.33 156.93 68.96 157.15 68.57 157.41C67.8405 157.913 67.012 158.254 66.14 158.41C65.7778 158.453 65.4107 158.415 65.0649 158.299C64.7191 158.183 64.4032 157.992 64.14 157.74C63.5395 157.234 63.0667 156.593 62.76 155.87C62.4826 155.192 62.3498 154.463 62.37 153.73C62.3927 152.979 62.5591 152.239 62.86 151.55C63.1703 150.823 63.5921 150.148 64.11 149.55C64.6799 148.871 65.3804 148.313 66.17 147.91C66.8369 147.568 67.5516 147.329 68.29 147.2L68.89 150.02C68.708 149.989 68.522 149.989 68.34 150.02C68.042 150.082 67.7506 150.172 67.47 150.29C67.1197 150.429 66.7846 150.603 66.47 150.81C66.1321 151.027 65.8287 151.293 65.57 151.6C65.0976 152.066 64.8099 152.688 64.76 153.35C64.7623 153.617 64.8236 153.88 64.9395 154.12C65.0553 154.36 65.2228 154.572 65.43 154.74C65.5895 154.882 65.7881 154.973 66 155C66.2347 155.023 66.4716 154.989 66.69 154.9C66.9757 154.794 67.2503 154.66 67.51 154.5L68.51 153.86C68.9439 153.565 69.3984 153.301 69.87 153.07C70.2704 152.87 70.6985 152.732 71.14 152.66C71.5402 152.593 71.9503 152.617 72.34 152.73C72.7696 152.864 73.1653 153.089 73.5 153.39C74.0992 153.874 74.571 154.496 74.8742 155.204C75.1775 155.912 75.3031 156.683 75.24 157.45C75.1751 158.18 74.9679 158.89 74.63 159.54C74.3063 160.247 73.8929 160.909 73.4 161.51V161.51Z" fill="#78C2FF"></path><path d="M80.81 153C80.456 153.43 80.0077 153.772 79.5 154C79.0317 154.209 78.5228 154.312 78.01 154.3C77.4758 154.283 76.9496 154.164 76.46 153.95C75.9233 153.711 75.4246 153.394 74.98 153.01C74.3207 152.452 73.7742 151.773 73.37 151.01C72.9706 150.269 72.7065 149.463 72.59 148.63C72.4759 147.837 72.5133 147.029 72.7 146.25C72.8641 145.493 73.207 144.787 73.7 144.19C74.1344 143.685 74.7201 143.335 75.37 143.19C75.9828 143.054 76.6228 143.113 77.2 143.36L76.07 141.85L77.87 139.77L82.53 145.91C82.5982 146.016 82.6788 146.113 82.77 146.2C82.99 146.39 83.21 146.36 83.44 146.12L84.89 148.03L84.54 148.58C84.4579 148.718 84.3642 148.848 84.26 148.97C84.0076 149.293 83.6564 149.525 83.26 149.63C83.0833 149.672 82.8987 149.668 82.7238 149.619C82.5488 149.57 82.3892 149.478 82.26 149.35C82.0666 149.167 81.8954 148.963 81.75 148.74C81.9305 149.533 81.9305 150.357 81.75 151.15C81.5797 151.829 81.2584 152.462 80.81 153V153ZM79.81 150.54C79.9739 150.346 80.1056 150.126 80.2 149.89C80.3108 149.625 80.3816 149.346 80.41 149.06C80.4403 148.761 80.4403 148.459 80.41 148.16C80.3819 147.858 80.3215 147.559 80.23 147.27L78.63 145.19C78.1613 144.868 77.5976 144.713 77.03 144.75C76.7727 144.761 76.5203 144.825 76.2882 144.936C76.0562 145.048 75.8492 145.206 75.68 145.4C75.3945 145.743 75.1987 146.152 75.11 146.59C75.0149 147.052 75.0149 147.528 75.11 147.99C75.1929 148.476 75.355 148.946 75.59 149.38C75.8188 149.82 76.1274 150.213 76.5 150.54C76.9715 150.975 77.5794 151.233 78.22 151.27C78.5305 151.289 78.8411 151.233 79.1251 151.106C79.409 150.979 79.6578 150.785 79.85 150.54H79.81Z" fill="#78C2FF"></path><path d="M88.08 144.54C87.7303 144.994 87.2306 145.31 86.67 145.43C86.4133 145.459 86.1534 145.43 85.9094 145.345C85.6654 145.26 85.4435 145.122 85.26 144.94L84.99 144.69L84.72 144.37L77.02 134.19L78.8 132.12L85.93 141.51C85.9703 141.566 86.0137 141.619 86.06 141.67L86.21 141.81C86.2867 141.896 86.3823 141.964 86.4894 142.007C86.5965 142.05 86.7121 142.068 86.8273 142.06C86.9425 142.051 87.0541 142.016 87.1534 141.957C87.2528 141.898 87.3372 141.817 87.4 141.72C87.5111 141.582 87.6051 141.431 87.68 141.27C87.769 141.091 87.8394 140.903 87.89 140.71L89.42 142.14C89.2814 142.591 89.0901 143.024 88.85 143.43C88.6303 143.824 88.3724 144.196 88.08 144.54V144.54Z" fill="#78C2FF"></path><path d="M93.69 138.15C93.2911 138.634 92.7978 139.033 92.24 139.32C91.735 139.576 91.1815 139.721 90.6161 139.747C90.0507 139.773 89.4862 139.678 88.96 139.47C88.382 139.232 87.8505 138.893 87.39 138.47C86.7295 137.904 86.1947 137.205 85.82 136.42C85.4439 135.651 85.223 134.815 85.17 133.96C85.1133 133.091 85.2218 132.219 85.49 131.39C85.771 130.512 86.2306 129.702 86.84 129.01C87.4468 128.234 88.289 127.676 89.24 127.42C89.6581 127.327 90.0927 127.34 90.5047 127.457C90.9167 127.574 91.2932 127.791 91.6 128.09C93.3533 129.597 92.8767 131.913 90.17 135.04L89.67 135.61C89.4907 135.82 89.3004 136.02 89.1 136.21L89.31 136.38C89.7583 136.816 90.3388 137.09 90.96 137.16C91.2555 137.174 91.5499 137.115 91.8169 136.988C92.0839 136.86 92.3152 136.669 92.49 136.43C92.8462 136.021 93.0938 135.53 93.21 135C93.3306 134.474 93.3099 133.925 93.15 133.41L95.08 132.21C95.2121 132.703 95.2826 133.21 95.29 133.72C95.2895 134.248 95.2291 134.775 95.11 135.29C94.9869 135.809 94.8058 136.312 94.57 136.79C94.3374 137.28 94.0416 137.737 93.69 138.15V138.15ZM88.03 130.67C87.7784 130.963 87.588 131.303 87.47 131.67C87.3608 132.019 87.3101 132.384 87.32 132.75C87.3304 133.124 87.3944 133.494 87.51 133.85C87.625 134.201 87.7828 134.537 87.98 134.85C88.13 134.7 88.27 134.54 88.41 134.39L88.82 133.9C89.1854 133.482 89.5196 133.037 89.82 132.57C90.0316 132.263 90.1967 131.926 90.31 131.57C90.3789 131.318 90.3789 131.052 90.31 130.8C90.2462 130.58 90.1172 130.385 89.94 130.24C89.8107 130.113 89.6493 130.024 89.4732 129.982C89.2971 129.939 89.1128 129.946 88.94 130C88.5786 130.131 88.2626 130.364 88.03 130.67Z" fill="#78C2FF"></path><path d="M115 103.17L114.84 102.53C116.083 102.154 117.278 101.633 118.4 100.98L118.73 101.55C117.558 102.242 116.305 102.786 115 103.17V103.17Z" fill="#E6E6E6"></path><path d="M359.25 156.24L358.62 156.03C359.53 153.35 360.32 150.88 361.05 148.47L361.69 148.66C360.96 151.08 360.16 153.56 359.25 156.24ZM363.84 140.98L363.19 140.82C363.87 138.16 364.46 135.55 364.94 133.08L365.59 133.2C365.11 135.67 364.52 138.31 363.84 140.98ZM366.84 125.32L366.18 125.25C366.5 122.52 366.68 119.86 366.73 117.35H367.4C367.34 119.89 367.15 122.57 366.83 125.32H366.84ZM366.4 109.45C366.117 106.831 365.622 104.239 364.92 101.7L365.56 101.52C366.273 104.095 366.775 106.724 367.06 109.38L366.4 109.45ZM124.82 96.32L124.3 95.91C125.908 93.8261 127.093 91.4482 127.79 88.91L128.43 89.09C127.714 91.714 126.487 94.171 124.82 96.32V96.32ZM362.06 94.32C360.856 91.9862 359.397 89.7928 357.71 87.78L358.22 87.35C359.96 89.4132 361.46 91.6677 362.69 94.07L362.06 94.32ZM352.06 82.32C349.982 80.7067 347.763 79.2843 345.43 78.07L345.74 77.48C348.107 78.7142 350.359 80.1566 352.47 81.79L352.06 82.32ZM129.42 81.13H128.76C128.835 78.4526 129.062 75.7816 129.44 73.13L130.09 73.22C129.72 75.8625 129.493 78.523 129.41 81.19L129.42 81.13ZM338.19 74.94C335.703 74.0601 333.169 73.319 330.6 72.72L330.75 72.08C333.343 72.681 335.9 73.4255 338.41 74.31L338.19 74.94ZM322.82 71.25C320.31 70.88 317.66 70.59 314.94 70.38L314.99 69.71C317.73 69.93 320.39 70.23 322.91 70.59L322.82 71.25ZM307.01 69.75C304.27 69.48 301.61 69.15 299.12 68.75L299.22 68.09C301.7 68.48 304.35 68.81 307.07 69.09L307.01 69.75ZM291.31 67.26C288.63 66.64 286.05 65.91 283.64 65.11L283.85 64.48C286.24 65.28 288.85 65.99 291.46 66.61L291.31 67.26ZM131.53 65.43L130.89 65.28C131.49 62.66 132.21 60.07 133.03 57.58L133.66 57.79C132.84 60.32 132.12 62.89 131.52 65.49L131.53 65.43ZM276.24 62.17C273.825 61.0367 271.487 59.7473 269.24 58.31L269.6 57.76C271.813 59.1784 274.118 60.4478 276.5 61.56L276.24 62.17ZM262.81 53.67C260.62 51.89 258.55 50.03 256.81 48.45L257.26 47.96C258.99 49.53 261.05 51.38 263.26 53.15L262.81 53.67ZM136.48 50.44L135.87 50.18C136.946 47.7391 138.162 45.3619 139.51 43.06L140.08 43.4C138.747 45.6763 137.545 48.0268 136.48 50.44V50.44ZM250.95 43.12C248.71 41.12 246.79 39.51 244.89 38.03L245.29 37.5C247.21 39 249.15 40.62 251.39 42.63L250.95 43.12ZM144.52 36.85L143.99 36.44C145.631 34.3331 147.429 32.3541 149.37 30.52L149.82 31.01C147.906 32.8175 146.134 34.7699 144.52 36.85V36.85ZM238.44 33.46C236.25 32.06 233.95 30.74 231.59 29.53L231.89 28.94C234.27 30.16 236.59 31.49 238.8 32.94L238.44 33.46ZM224.44 26.25C222.09 25.25 219.58 24.39 217.01 23.55L217.21 22.92C219.8 23.76 222.32 24.68 224.69 25.64L224.44 26.25ZM156.02 26.08L155.64 25.53C157.86 24.0427 160.202 22.7448 162.64 21.65L162.91 22.26C160.495 23.3327 158.176 24.6107 155.98 26.08H156.02ZM209.41 21.34C207.41 20.81 205.24 20.34 203.07 19.83L201.69 19.54L201.82 18.89L203.21 19.18C205.39 19.66 207.53 20.18 209.57 20.7L209.41 21.34ZM170.29 19.67L170.12 19.02C172.699 18.3477 175.322 17.8598 177.97 17.56L178.04 18.22C175.425 18.5125 172.834 18.9971 170.29 19.67V19.67ZM193.83 18.32C191.207 18.0134 188.57 17.8465 185.93 17.82V17.16C188.604 17.1851 191.274 17.352 193.93 17.66L193.83 18.32Z" fill="#E6E6E6"></path><path d="M355.08 167.9L354.46 167.67C354.91 166.46 355.37 165.21 355.83 163.93L356.45 164.16C355.99 165.44 355.53 166.67 355.08 167.9Z" fill="#E6E6E6"></path><path d="M517.94 169.03L538.94 156.96L559 143.79L561.21 147.79L540.8 159.67L520.15 172.98L517.94 169.03ZM530.57 151.58C529.397 151.173 528.312 150.549 527.37 149.74C526.503 148.983 525.781 148.075 525.24 147.06C524.726 146.069 524.404 144.99 524.29 143.88C524.18 142.735 524.327 141.581 524.72 140.5C525.09 139.425 525.699 138.447 526.5 137.64C527.273 136.83 528.206 136.19 529.24 135.76C530.298 135.322 531.426 135.078 532.57 135.04C533.812 135 535.051 135.196 536.22 135.62C537.382 136.031 538.457 136.655 539.39 137.46C540.271 138.205 541.007 139.107 541.56 140.12C542.101 141.103 542.441 142.184 542.56 143.3C542.671 144.434 542.527 145.578 542.14 146.65C541.771 147.737 541.159 148.725 540.35 149.54C539.563 150.334 538.634 150.972 537.61 151.42C536.543 151.873 535.399 152.121 534.24 152.15C532.992 152.194 531.746 152.001 530.57 151.58V151.58ZM531.82 148.05C532.325 148.238 532.87 148.286 533.4 148.19C533.939 148.099 534.457 147.912 534.93 147.64C535.435 147.346 535.882 146.963 536.25 146.51C536.633 146.026 536.934 145.482 537.14 144.9C537.575 143.763 537.575 142.506 537.14 141.37C536.967 140.86 536.681 140.395 536.304 140.011C535.926 139.626 535.467 139.332 534.96 139.15C534.455 138.965 533.91 138.917 533.38 139.01C532.842 139.101 532.323 139.288 531.85 139.56C531.35 139.847 530.906 140.223 530.54 140.67C530.156 141.141 529.859 141.676 529.66 142.25C529.226 143.393 529.226 144.656 529.66 145.8C529.825 146.315 530.105 146.785 530.48 147.175C530.854 147.565 531.312 147.864 531.82 148.05ZM542.95 181.26C541.774 180.856 540.687 180.227 539.75 179.41C538.878 178.667 538.153 177.769 537.61 176.76C537.066 175.789 536.726 174.717 536.61 173.61C536.492 172.466 536.636 171.31 537.03 170.23C537.403 169.145 538.015 168.157 538.82 167.34C539.607 166.546 540.536 165.908 541.56 165.46C542.619 165.012 543.751 164.761 544.9 164.72C547.403 164.659 549.841 165.52 551.75 167.14C552.628 167.897 553.36 168.809 553.91 169.83C554.455 170.812 554.795 171.893 554.91 173.01C554.996 174.152 554.843 175.299 554.461 176.379C554.079 177.459 553.475 178.447 552.69 179.28C551.922 180.084 550.991 180.714 549.96 181.13C547.723 182.037 545.229 182.083 542.96 181.26H542.95ZM544.2 177.73C544.703 177.91 545.243 177.958 545.77 177.87C546.886 177.677 547.894 177.087 548.61 176.21C548.999 175.741 549.3 175.206 549.5 174.63C549.714 174.027 549.819 173.39 549.81 172.75C549.795 172.167 549.687 171.589 549.49 171.04C549.322 170.532 549.05 170.065 548.69 169.67C548.331 169.289 547.885 169.001 547.39 168.83C546.886 168.641 546.341 168.59 545.81 168.68C545.276 168.781 544.762 168.97 544.29 169.24C543.782 169.529 543.334 169.912 542.97 170.37C542.58 170.851 542.276 171.396 542.07 171.98C541.641 173.118 541.641 174.372 542.07 175.51C542.236 176.016 542.514 176.478 542.883 176.862C543.251 177.246 543.702 177.543 544.2 177.73V177.73Z" fill="#78C2FF"></path><path d="M65.31 18.21C64.6258 18.6816 63.8592 19.0208 63.05 19.21C62.3 19.369 61.5273 19.3893 60.77 19.27C60.0358 19.1472 59.3327 18.8822 58.7 18.49C58.0439 18.0972 57.489 17.5561 57.08 16.91C56.6553 16.2836 56.3784 15.569 56.27 14.82C56.1525 14.0842 56.1865 13.3322 56.37 12.61C56.5749 11.8681 56.9138 11.1699 57.37 10.55C57.8448 9.87446 58.4459 9.29718 59.14 8.85C59.8175 8.37941 60.5773 8.0402 61.38 7.85C62.1316 7.67987 62.9084 7.65273 63.67 7.77C64.4051 7.88352 65.1094 8.14551 65.74 8.54C66.3856 8.94042 66.9371 9.4757 67.3565 10.1092C67.7759 10.7426 68.0534 11.4593 68.17 12.21C68.2721 12.9466 68.2382 13.6956 68.07 14.42C67.8711 15.1703 67.5318 15.8761 67.07 16.5C66.5984 17.1775 66.0008 17.7581 65.31 18.21V18.21ZM63.93 16.13C64.2293 15.9317 64.4763 15.6642 64.65 15.35C64.807 15.0357 64.9117 14.698 64.96 14.35C65.0112 13.9657 64.9874 13.5752 64.89 13.2C64.7915 12.8015 64.6258 12.4228 64.4 12.08C63.9683 11.3946 63.2989 10.8925 62.52 10.67C62.1874 10.5643 61.8355 10.5337 61.4897 10.5804C61.1438 10.6271 60.8127 10.7499 60.52 10.94C60.2178 11.1318 59.9726 11.4012 59.81 11.72C59.6487 12.0333 59.5405 12.3712 59.49 12.72C59.4383 13.1009 59.4621 13.4883 59.56 13.86C59.7025 14.4502 59.9945 14.9939 60.4078 15.4387C60.8211 15.8835 61.3418 16.2146 61.92 16.4C62.254 16.5072 62.6078 16.5386 62.9555 16.4919C63.3032 16.4452 63.6361 16.3216 63.93 16.13V16.13ZM69.51 31.92L71.51 15.92L72.57 -0.0100021L75.57 0.41L73.69 16.03L72.48 32.34L69.51 31.92ZM86.03 23.54C85.3501 24.0193 84.582 24.3591 83.77 24.54C83.0234 24.6972 82.2549 24.7209 81.5 24.61C80.7704 24.4989 80.0702 24.244 79.44 23.86C78.7926 23.4561 78.24 22.9171 77.82 22.28C77.3913 21.6437 77.111 20.9192 77 20.16C76.8963 19.4263 76.9336 18.6796 77.11 17.96C77.2912 17.2142 77.61 16.5088 78.05 15.88C78.5301 15.209 79.1302 14.6327 79.82 14.18C80.5018 13.7041 81.2693 13.3645 82.08 13.18C82.8367 13.0226 83.6151 12.9989 84.38 13.11C85.1136 13.2293 85.8168 13.4908 86.45 13.88C87.0908 14.2917 87.6388 14.8325 88.0589 15.4678C88.479 16.1032 88.7621 16.8191 88.89 17.57C89.0055 18.3003 88.9646 19.0467 88.77 19.76C88.5643 20.5047 88.2255 21.206 87.77 21.83C87.3072 22.5081 86.716 23.089 86.03 23.54V23.54ZM84.69 21.46C84.9922 21.2682 85.2374 20.9988 85.4 20.68C85.5603 20.3663 85.6684 20.0285 85.72 19.68C85.7699 19.299 85.7461 18.912 85.65 18.54C85.5555 18.1481 85.393 17.7758 85.17 17.44C84.7228 16.75 84.0464 16.24 83.26 16C82.9169 15.8958 82.5557 15.8651 82.2 15.91C81.8433 15.9443 81.5002 16.0643 81.2 16.26C80.9015 16.4532 80.6598 16.7224 80.5 17.04C80.3354 17.3519 80.2271 17.6904 80.18 18.04C80.129 18.4276 80.1528 18.8214 80.25 19.2C80.3485 19.5985 80.5142 19.9772 80.74 20.32C81.1703 21.0067 81.8403 21.5092 82.62 21.73C82.9625 21.8475 83.3276 21.8843 83.6866 21.8375C84.0457 21.7906 84.3891 21.6614 84.69 21.46V21.46Z" fill="#78C2FF"></path></g><defs><linearGradient id="paint0_linear" x1="107.27" y1="199.5" x2="445.26" y2="199.5" gradientUnits="userSpaceOnUse"><stop stop-color="#101B70"></stop><stop offset="1" stop-color="#5EAFFF"></stop></linearGradient><linearGradient id="paint1_linear" x1="448.12" y1="226.64" x2="505.8" y2="226.64" gradientUnits="userSpaceOnUse"><stop offset="0.01" stop-color="#595959"></stop><stop offset="1" stop-color="white"></stop></linearGradient><linearGradient id="paint2_linear" x1="32227.6" y1="12739.9" x2="35555.3" y2="12739.9" gradientUnits="userSpaceOnUse"><stop offset="0.01" stop-color="#595959"></stop><stop offset="1" stop-color="white"></stop></linearGradient><linearGradient id="paint3_linear" x1="536.05" y1="223.35" x2="567.88" y2="223.35" gradientUnits="userSpaceOnUse"><stop offset="0.01" stop-color="#B3B3B3"></stop><stop offset="1" stop-color="white"></stop></linearGradient><linearGradient id="paint4_linear" x1="9560.57" y1="3105.05" x2="9834.77" y2="3105.05" gradientUnits="userSpaceOnUse"><stop offset="0.01" stop-color="#B3B3B3"></stop><stop offset="1" stop-color="white"></stop></linearGradient><linearGradient id="paint5_linear" x1="7090.12" y1="3105.09" x2="7235.3" y2="3105.09" gradientUnits="userSpaceOnUse"><stop offset="0.01" stop-color="#595959"></stop><stop offset="1" stop-color="white"></stop></linearGradient><linearGradient id="paint6_linear" x1="497.4" y1="367.83" x2="497.4" y2="275.1" gradientUnits="userSpaceOnUse"><stop stop-color="#40D5E6"></stop><stop offset="1" stop-color="#101B70"></stop></linearGradient><linearGradient id="paint7_linear" x1="63142.4" y1="8479.47" x2="85092.3" y2="8479.47" gradientUnits="userSpaceOnUse"><stop stop-color="#40D5E6"></stop><stop offset="1" stop-color="#5577FF"></stop></linearGradient><linearGradient id="paint8_linear" x1="15955.1" y1="31826" x2="14570.9" y2="31826" gradientUnits="userSpaceOnUse"><stop offset="0.01" stop-color="#B3B3B3"></stop><stop offset="1" stop-color="white"></stop></linearGradient><linearGradient id="paint9_linear" x1="562.77" y1="263.95" x2="585.74" y2="263.95" gradientUnits="userSpaceOnUse"><stop stop-color="#1F3073"></stop><stop offset="1" stop-color="#4E6CDE"></stop></linearGradient><linearGradient id="paint10_linear" x1="551.53" y1="266.76" x2="585.74" y2="266.76" gradientUnits="userSpaceOnUse"><stop stop-color="#7C3596"></stop><stop offset="1" stop-color="#3098FF"></stop></linearGradient><linearGradient id="paint11_linear" x1="547.84" y1="275.3" x2="569.34" y2="254.3" gradientUnits="userSpaceOnUse"><stop stop-color="#354996"></stop><stop offset="1" stop-color="#4E6CDE"></stop></linearGradient><linearGradient id="paint12_linear" x1="15510.3" y1="5614.13" x2="16037.1" y2="5614.13" gradientUnits="userSpaceOnUse"><stop stop-color="#1F3073"></stop><stop offset="1" stop-color="#4E6CDE"></stop></linearGradient><linearGradient id="paint13_linear" x1="22843.3" y1="7372.22" x2="24014.1" y2="7372.22" gradientUnits="userSpaceOnUse"><stop stop-color="#7C3596"></stop><stop offset="1" stop-color="#3098FF"></stop></linearGradient><linearGradient id="paint14_linear" x1="6980.41" y1="2334.33" x2="6978.29" y2="2294.81" gradientUnits="userSpaceOnUse"><stop stop-color="#354996"></stop><stop offset="1" stop-color="#4E6CDE"></stop></linearGradient><linearGradient id="paint15_linear" x1="589.41" y1="331.23" x2="589.41" y2="281.24" gradientUnits="userSpaceOnUse"><stop stop-color="#FFC05C"></stop><stop offset="1" stop-color="#FF3857"></stop></linearGradient><linearGradient id="paint16_linear" x1="56129.5" y1="7572.12" x2="56129.5" y2="6249" gradientUnits="userSpaceOnUse"><stop stop-color="#FFC05C"></stop><stop offset="1" stop-color="#FF3857"></stop></linearGradient><linearGradient id="paint17_linear" x1="11743.4" y1="24297.2" x2="11743.4" y2="17683.2" gradientUnits="userSpaceOnUse"><stop stop-color="#7C3596"></stop><stop offset="1" stop-color="#3098FF"></stop></linearGradient><linearGradient id="paint18_linear" x1="7976.05" y1="19339.1" x2="15527" y2="19339.1" gradientUnits="userSpaceOnUse"><stop stop-color="#40D5E6"></stop><stop offset="1" stop-color="#5577FF"></stop></linearGradient><linearGradient id="paint19_linear" x1="373273" y1="-97113.4" x2="369675" y2="-101641" gradientUnits="userSpaceOnUse"><stop stop-color="#40D5E6"></stop><stop offset="1" stop-color="#5577FF"></stop></linearGradient><linearGradient id="paint20_linear" x1="8643.49" y1="21062.5" x2="31390.2" y2="21062.5" gradientUnits="userSpaceOnUse"><stop stop-color="#40D5E6"></stop><stop offset="1" stop-color="#5577FF"></stop></linearGradient><linearGradient id="paint21_linear" x1="257916" y1="-228142" x2="254171" y2="-230669" gradientUnits="userSpaceOnUse"><stop stop-color="#40D5E6"></stop><stop offset="1" stop-color="#5577FF"></stop></linearGradient><linearGradient id="paint22_linear" x1="533473" y1="-325970" x2="537898" y2="-324504" gradientUnits="userSpaceOnUse"><stop stop-color="#40D5E6"></stop><stop offset="1" stop-color="#5577FF"></stop></linearGradient><linearGradient id="paint23_linear" x1="269222" y1="-22487" x2="266604" y2="-23884.9" gradientUnits="userSpaceOnUse"><stop stop-color="#40D5E6"></stop><stop offset="1" stop-color="#5577FF"></stop></linearGradient><linearGradient id="paint24_linear" x1="44884.7" y1="33445.7" x2="57017.5" y2="6350.83" gradientUnits="userSpaceOnUse"><stop stop-color="#40D5E6"></stop><stop offset="1" stop-color="#5577FF"></stop></linearGradient><linearGradient id="paint25_linear" x1="23127" y1="18803" x2="29477.9" y2="15669.3" gradientUnits="userSpaceOnUse"><stop stop-color="#40D5E6"></stop><stop offset="1" stop-color="#5577FF"></stop></linearGradient><linearGradient id="paint26_linear" x1="33547.1" y1="51207.6" x2="180581" y2="51207.6" gradientUnits="userSpaceOnUse"><stop stop-color="#FFC05C"></stop><stop offset="1" stop-color="#FF3857"></stop></linearGradient><linearGradient id="paint27_linear" x1="6514.77" y1="2073.63" x2="72571" y2="2073.63" gradientUnits="userSpaceOnUse"><stop stop-color="#FFC05C"></stop><stop offset="1" stop-color="#FF3857"></stop></linearGradient><linearGradient id="paint28_linear" x1="6514.77" y1="553.634" x2="72571" y2="553.634" gradientUnits="userSpaceOnUse"><stop stop-color="#FFC05C"></stop><stop offset="1" stop-color="#FF3857"></stop></linearGradient><linearGradient id="paint29_linear" x1="3385.6" y1="2425.21" x2="37170.4" y2="2425.21" gradientUnits="userSpaceOnUse"><stop stop-color="#FFC05C"></stop><stop offset="1" stop-color="#FF3857"></stop></linearGradient><linearGradient id="paint30_linear" x1="427.02" y1="255.88" x2="144.15" y2="255.88" gradientUnits="userSpaceOnUse"><stop stop-color="#EDF4FF"></stop><stop offset="1" stop-color="#EDFFFE"></stop></linearGradient><linearGradient id="paint31_linear" x1="107964" y1="6251.93" x2="107964" y2="3896.77" gradientUnits="userSpaceOnUse"><stop stop-color="#7C3596"></stop><stop offset="1" stop-color="#3098FF"></stop></linearGradient><clipPath id="clip0"><rect width="636.56" height="411.35" fill="white"></rect></clipPath></defs></svg>